<svg width="16" height="16" viewBox="0 0 16 16" fill="none" xmlns="http://www.w3.org/2000/svg">
<path d="M7.67598 11.7281C9.36929 11.8476 10.699 12.5611 10.6463 13.3218C10.5933 14.0825 9.17745 14.6024 7.48393 14.4829C5.79043 14.3634 4.46 13.65 4.51284 12.8892C4.56582 12.1285 5.98239 11.6086 7.67598 11.7281Z" fill="#4267FF"/>
<path d="M10.7705 8.52782C11.1688 6.76052 12.321 5.51691 13.3438 5.75039C14.3666 5.98391 14.8726 7.60615 14.4743 9.37348C14.0761 11.1406 12.9245 12.3841 11.9018 12.1509C10.8791 11.9174 10.3723 10.2952 10.7705 8.52782Z" fill="#4267FF"/>
<path d="M2.09772 4.99108C3.3056 2.50493 5.63941 1.15589 7.30963 1.97803C8.97974 2.80025 9.35426 5.48255 8.14641 7.96863C6.93855 10.4546 4.60547 11.8036 2.9353 10.9817C1.26509 10.1595 0.889855 7.47722 2.09772 4.99108Z" fill="#4267FF"/>
<path d="M9.1349 1.66494C9.39284 1.27725 10.5413 1.59634 11.7001 2.37746C12.8586 3.1584 13.5891 4.10533 13.3317 4.49321C13.0738 4.88087 11.9252 4.56249 10.7665 3.7815C9.60788 3.0005 8.87735 2.05277 9.1349 1.66494Z" fill="#4267FF"/>
</svg>
