<svg xmlns="http://www.w3.org/2000/svg" fill="none" viewBox="0 0 512 512"><path fill="#000" d="M0 0h512v512H0Z"/><path fill="#fff" d="M109.5 269.83c0-28.85 19.24-48.47 47.55-48.47 23.86 0 40.51 13.87 42.36 34.4h-19.99c-2.04-12.2-9.61-17.76-22.38-17.76-16.84 0-26.64 12.21-26.64 31.82 0 19.6 10 31.45 26.64 31.45 13.32 0 20.53-4.99 23.3-17.76h20c-2.41 20.53-18.5 34.4-43.3 34.4-28.84 0-47.53-18.87-47.53-48.1zm109.46 33.86c0-8.7 5.92-14.8 14.25-14.8s14.05 6.1 14.05 14.8c0 8.7-5.73 14.25-14.05 14.25s-14.25-5.92-14.25-14.25zm82.49-2.22c14.98 0 26.09-11.1 26.09-25.72v-2.77c-7.21 2.22-24.98 3.15-31.08 5.18-6.1 2.04-9.06 5.74-9.06 11.84 0 7.4 4.99 11.47 14.05 11.47zm-34.78-10.73c0-12.2 6.48-20.71 18.5-24.6 7.4-2.4 19.05-3.88 34.4-6.3 6.48-1.11 7.95-2.4 7.95-7.21 0-9.43-6.3-14.62-17.58-14.62-11.28 0-18.3 5.56-19.42 15.17h-19.98c1.66-20.17 16.47-31.82 39.95-31.82 23.49 0 37.55 12.95 37.55 36.44v59.01h-19.6v-14.43h-.75c-6.48 10-17.38 15.54-30.16 15.54-19.23 0-30.89-10.35-30.89-27.19zm110.92-108.22c7.59 0 12.76 5.19 12.76 12.76 0 7.58-5.19 12.76-12.76 12.76-7.58 0-12.76-5.18-12.76-12.76 0-7.57 5.18-12.76 12.76-12.76zm-10.36 39.96h20.53v94.34h-20.53zM81.48 337.24c-15.83-19.97-26.77-51.65-26.62-82.52.14-30.87 11.36-62.48 27.35-82.3l18.56.07c-16.43 21.52-24.52 51.4-24.66 82.3-.15 30.91 7.66 60.86 23.93 82.52l-18.56-.08zm329.57.08c16.25-21.65 24.06-51.62 23.93-82.52-.15-30.9-8.23-60.77-24.66-82.3l18.56-.08c15.99 19.83 27.22 51.44 27.35 82.32.14 30.87-10.79 62.56-26.62 82.52l-18.56.08z"/></svg>