<svg width="1165" height="305" viewBox="0 0 1165 305" fill="none" xmlns="http://www.w3.org/2000/svg">
<g clip-path="url(#clip0_984_7531)">
<path d="M188.128 200.35L198.938 0.557068H186.595L35.96 204.813C25.4586 219.52 15.5824 221.182 2.62266 221.182L0.763916 227.006H64.3551L66.505 221.182C35.3347 221.182 38.7182 218.955 48.9027 204.813L85.3323 154.867H171.759L168.667 200.376C167.751 217.31 164.033 221.182 138.105 221.182L135.938 227.006H210.63L213.405 221.182C190.569 221.182 187.16 217.858 188.103 200.376L188.12 200.359L188.128 200.35ZM172.076 146.258H91.825L177.627 28.5838H179.794L172.068 146.241V146.258H172.076Z" fill="white" stroke="white" stroke-width="1.11353" stroke-miterlimit="10"/>
<path d="M489.725 46.511C483.858 46.511 480.277 51.5133 479.541 56.2072C478.059 65.578 484.706 74.255 481.931 91.6261C476.98 122.702 443.18 174.173 397.122 226.98C411.084 172.16 428.704 117.691 433.184 89.6132C437.723 59.2052 431.779 47.3847 418.502 47.3847C402.133 47.3847 380.685 115.935 366.663 143.996C366.663 143.996 334.747 216.282 323.664 216.282C318.713 216.282 317.488 212.941 317.488 207.93C317.488 203.587 320.263 196.238 321.805 191.227C338.174 148.099 364.102 94.9667 364.102 67.5653C364.102 54.871 357.926 46.8365 346.5 46.8365C326.122 46.8365 302.053 73.2357 268.107 150.78H265.64L286.018 89.9558C289.709 78.5892 292.802 69.5782 292.802 62.5544C292.802 54.537 288.793 47.5131 280.758 47.5131C261.323 47.5131 240.32 75.2486 227.669 101.648H234.144C244.646 81.6043 260.389 59.8733 270.865 59.8733C273.64 59.8733 275.499 61.201 275.499 66.229C275.499 70.2377 272.099 81.2702 269.323 89.9558L225.793 226.989H243.395C288.759 102.333 323.038 62.2203 337.548 62.2203C342.791 62.2203 344.958 66.229 344.958 74.5805C344.958 92.6283 322.721 142.754 305.436 190.884C302.661 198.242 299.885 205.592 299.885 211.613C299.885 221.644 304.211 229.001 316.254 229.001C337.232 229.001 378.021 133.306 378.021 133.306C390.809 105.434 406.784 62.7599 413.217 61.8863C433.201 59.1281 399.075 152.63 384.899 204.829C378.509 228.393 368.085 250.75 353.618 270.408C347.262 279.05 341.634 284.824 335.45 284.824C326.182 284.824 324.169 278.134 314.293 278.134C305.958 278.134 298.104 284.824 296.776 293.175C295.877 298.845 299.457 303.539 308.699 303.539C344.812 303.539 381.816 263.093 423.385 211.288C463.763 161.162 491.644 114.025 497.34 78.2551C500.843 56.1987 497.768 46.4938 489.734 46.4938L489.725 46.511Z" fill="white" stroke="white" stroke-width="1.11353" stroke-miterlimit="10"/>
<path d="M597.883 51.3767V68.4138H564.152V189.095C564.152 195.742 565.051 200.924 566.893 204.684C568.709 208.436 573.265 210.509 580.538 210.946C586.328 210.946 592.093 210.629 597.883 209.986V227.023C594.894 227.023 591.879 227.118 588.889 227.332C585.9 227.546 582.885 227.649 579.895 227.649C566.404 227.649 556.974 225.028 551.637 219.785C546.275 214.543 543.723 204.847 543.937 190.705V68.4138H515.036V51.3767H543.937V1.58481H564.177V51.3767H597.909H597.892H597.883Z" fill="white" stroke="white" stroke-width="1.11353" stroke-miterlimit="10"/>
<path d="M634.174 1.58481V79.9516H634.817C638.671 69.8785 645.515 61.8011 655.366 55.7024C665.225 49.6037 676.035 46.5457 687.804 46.5457C699.573 46.5457 709.055 48.0533 716.884 51.0427C724.704 54.0321 730.966 58.2806 735.677 63.7369C740.388 69.1932 743.712 75.9001 745.63 83.8233C747.566 91.7465 748.525 100.646 748.525 110.48V226.989H728.285V113.683C728.285 106.625 727.642 100.029 726.349 93.9307C725.056 87.832 722.811 82.5299 719.599 78.0329C716.396 73.536 712.053 69.9984 706.597 67.4287C701.14 64.8676 694.339 63.5742 686.202 63.5742C678.065 63.5742 670.835 65.0218 664.514 67.917C658.201 70.8121 652.839 74.778 648.462 79.806C644.059 84.834 640.641 90.8385 638.175 97.7938C635.708 104.758 634.363 112.304 634.166 120.441V226.998H613.925V1.58481H634.166H634.174Z" fill="white" stroke="white" stroke-width="1.11353" stroke-miterlimit="10"/>
<path d="M794.438 51.3765V227.006H774.197V51.3765H794.438ZM795.491 18.7758C795.491 12.6171 790.489 7.6062 784.33 7.6062C778.172 7.6062 773.161 12.6171 773.161 18.7758C773.161 24.9344 778.163 29.9453 784.33 29.9453C790.498 29.9453 795.491 24.9344 795.491 18.7758Z" fill="white" stroke="white" stroke-width="1.11353" stroke-miterlimit="10"/>
<path d="M840.365 51.3768V79.9688H841.007C844.862 69.8957 851.706 61.8183 861.556 55.7196C871.415 49.6209 882.225 46.5629 893.994 46.5629C905.763 46.5629 915.254 48.0705 923.074 51.0599C930.895 54.0493 937.148 58.2978 941.867 63.7541C946.578 69.2104 949.902 75.9173 951.821 83.8405C953.756 91.7637 954.707 100.663 954.707 110.497V227.006H934.475V113.7C934.475 106.642 933.824 100.047 932.539 93.9479C931.246 87.8492 929.002 82.5471 925.79 78.0501C922.586 73.5532 918.243 70.0156 912.787 67.4545C907.331 64.8933 900.53 63.5999 892.392 63.5999C884.255 63.5999 877.026 65.0475 870.704 67.9427C864.391 70.8379 859.038 74.8038 854.652 79.8318C850.25 84.8598 846.832 90.8643 844.365 97.8281C841.898 104.792 840.553 112.338 840.356 120.476V227.032H820.116V51.3768H840.356H840.365Z" fill="white" stroke="white" stroke-width="1.11353" stroke-miterlimit="10"/>
<path d="M1116.1 240.308C1113.42 250.253 1109.2 258.673 1103.41 265.577C1097.62 272.481 1090.07 277.783 1080.77 281.458C1071.46 285.124 1060.05 286.965 1046.56 286.965C1038.21 286.965 1030.08 285.997 1022.16 284.044C1014.24 282.092 1007.13 279.076 1000.81 274.974C994.494 270.871 989.252 265.62 985.072 259.256C980.883 252.883 978.476 245.268 977.834 236.411H998.074C999.145 242.664 1001.22 247.906 1004.33 252.129C1007.44 256.352 1011.17 259.744 1015.57 262.322C1019.95 264.909 1024.84 266.802 1030.18 267.984C1035.53 269.166 1040.99 269.757 1046.56 269.757C1065.39 269.757 1079 264.352 1087.35 253.559C1095.71 242.75 1099.89 235.28 1099.89 214.989V192.307H1099.24C1094.53 202.68 1087.63 210.988 1078.53 217.258C1069.43 223.528 1058.79 226.646 1046.58 226.646C1033.3 226.646 1021.96 224.436 1012.54 219.999C1003.12 215.58 995.35 209.464 989.252 201.695C983.153 193.926 978.716 184.786 975.915 174.319C973.14 163.843 971.735 144.588 971.735 132.707C971.735 120.827 973.397 110.419 976.72 100.141C980.044 89.8877 984.849 80.9109 991.17 73.2532C997.483 65.5785 1005.3 59.5483 1014.61 55.1113C1023.92 50.6914 1034.58 48.4644 1046.56 48.4644C1052.77 48.4644 1058.61 49.3295 1064.06 51.0512C1069.52 52.79 1074.51 55.2141 1079 58.3491C1083.5 61.4841 1087.51 65.0988 1091.05 69.2017C1094.59 73.3046 1097.31 77.6217 1099.24 82.1615H1099.89V48.4729H1120.13V214.98C1120.13 227.289 1118.78 230.338 1116.12 240.274L1116.1 240.317V240.308ZM1069.7 203.845C1076.32 200.059 1081.9 195.108 1086.39 188.932C1090.89 182.782 1094.26 175.698 1096.5 167.706C1098.75 159.715 1099.87 143.431 1099.87 135.011C1099.87 126.591 1098.91 118.6 1096.97 110.394C1095.04 102.188 1091.94 94.7358 1087.67 88.0461C1083.39 81.3563 1077.87 75.9514 1071.12 71.8485C1064.38 67.7456 1056.18 65.6984 1046.55 65.6984C1036.91 65.6984 1028.67 67.6942 1021.81 71.6943C1014.95 75.6944 1009.28 80.928 1004.78 87.4122C1000.28 93.8964 997.012 101.297 994.982 109.606C992.943 117.932 991.933 126.411 991.933 135.028C991.933 143.645 993.003 159.732 995.136 167.723C997.269 175.715 1000.59 182.79 1005.09 188.949C1009.59 195.099 1015.26 200.076 1022.12 203.862C1028.96 207.648 1037.1 209.524 1046.52 209.524C1055.3 209.524 1063.01 207.631 1069.66 203.862L1069.7 203.845Z" fill="white" stroke="white" stroke-width="1.11353" stroke-miterlimit="10"/>
</g>
<defs>
<clipPath id="clip0_984_7531">
<rect width="1165" height="304.114" fill="white"/>
</clipPath>
</defs>
</svg>
