<svg width="100" height="100" viewBox="0 0 100 100" fill="none" xmlns="http://www.w3.org/2000/svg">
<g clip-path="url(#clip0_0_77)">
<path d="M50 100C77.6142 100 100 77.6142 100 50C100 22.3858 77.6142 0 50 0C22.3858 0 0 22.3858 0 50C0 77.6142 22.3858 100 50 100Z" fill="#D7EB80"/>
<path d="M38.824 11.9927C56.4606 6.06514 73.697 18.4283 71.0701 34.7466C71.0701 34.7758 71.0701 34.8053 71.0798 34.8248C71.0897 34.8538 71.1092 34.8737 71.1287 34.8834C71.148 34.893 71.168 34.9029 71.197 34.9029C71.2166 34.9028 71.246 34.8931 71.2654 34.8834C72.5544 33.8287 78.199 29.7662 83.8826 34.2486C89.2727 38.4969 87.5248 50.3815 76.8513 55.8795C76.8123 55.8892 76.7927 55.9185 76.7732 55.9478C76.7538 55.9771 76.7537 56.0162 76.7634 56.0455C76.7733 56.0842 76.8026 56.1042 76.8318 56.1236C76.861 56.1428 76.9003 56.1431 76.9294 56.1334C83.824 55.0984 95.5817 61.2898 86.0408 75.0396C79.7811 84.1213 65.6796 85.2642 59.3708 85.2642H54.7419C54.7322 85.2642 54.7126 85.2643 54.6931 85.274C54.6736 85.2838 54.6541 85.2935 54.6443 85.3033C54.6345 85.313 54.6247 85.3229 54.615 85.3423C54.6053 85.3521 54.6052 85.3717 54.6052 85.3912C54.5207 88.4022 55.8155 94.3842 57.2498 100.001H41.8699C42.1777 94.7952 42.7211 89.1483 43.6775 85.4205V85.3619C43.6678 85.3425 43.6579 85.3322 43.6482 85.313C43.6288 85.2937 43.6186 85.2837 43.5994 85.274C43.5799 85.2643 43.5602 85.2642 43.5408 85.2642H42.0076C32.037 85.2642 16.3242 83.8184 12.1248 70.3521C5.81616 50.2838 20.8845 43.067 27.1931 48.8482C27.2126 48.8676 27.2421 48.8873 27.2712 48.8873C27.3004 48.8873 27.3299 48.8872 27.3591 48.8677C27.3883 48.8483 27.4079 48.8285 27.4177 48.7994C27.4274 48.7703 27.4273 48.7406 27.4177 48.7115C26.031 44.6392 18.1306 19.0337 38.824 11.9927ZM36.2087 74.5806H63.9236V60.1275H46.7166V54.6783H57.8787V49.1607H46.7166V43.7115H63.9236V29.2681H36.2087V74.5806Z" fill="#2D3315"/>
</g>
<defs>
<clipPath id="clip0_0_77">
<rect width="100" height="100" fill="white"/>
</clipPath>
</defs>
</svg>
