<?xml version="1.0" standalone="no"?>
<!DOCTYPE svg PUBLIC "-//W3C//DTD SVG 20010904//EN"
 "http://www.w3.org/TR/2001/REC-SVG-20010904/DTD/svg10.dtd">
<svg version="1.0" xmlns="http://www.w3.org/2000/svg"
 width="64.000000pt" height="64.000000pt" viewBox="0 0 64.000000 64.000000"
 preserveAspectRatio="xMidYMid meet">
<metadata>
Created by potrace 1.16, written by Peter Selinger 2001-2019
</metadata>
<g transform="translate(0.000000,64.000000) scale(0.100000,-0.100000)"
fill="#000000" stroke="none">
<path d="M1 613 c0 -16 3 -21 6 -13 3 8 12 21 21 28 14 10 13 12 -6 12 -18 0
-22 -6 -21 -27z"/>
<path d="M625 630 c3 -5 8 -10 11 -10 2 0 4 5 4 10 0 6 -5 10 -11 10 -5 0 -7
-4 -4 -10z"/>
<path d="M213 501 c-23 -11 -49 -30 -58 -44 -23 -36 -37 -89 -25 -101 12 -12
92 -9 140 6 65 20 153 127 121 147 -26 17 -135 11 -178 -8z"/>
<path d="M412 385 c-7 -14 -25 -34 -42 -43 -36 -21 -37 -26 -5 -40 14 -7 34
-25 43 -42 21 -37 28 -37 47 0 9 17 27 36 40 42 32 14 31 25 -1 40 -14 7 -32
25 -40 40 -18 35 -27 35 -42 3z"/>
<path d="M125 288 c-3 -8 2 -37 12 -64 26 -69 71 -94 175 -94 42 0 80 4 83 10
7 12 -27 79 -52 102 -48 43 -206 77 -218 46z"/>
<path d="M0 27 c0 -23 4 -27 27 -27 14 0 23 3 19 8 -4 4 -13 7 -19 7 -7 0 -12
5 -12 12 0 6 -3 15 -7 19 -5 4 -8 -5 -8 -19z"/>
<path d="M629 45 c-1 -3 -2 -11 -3 -17 0 -7 -6 -13 -13 -13 -6 0 -15 -3 -19
-8 -4 -4 5 -7 19 -7 22 0 27 5 27 25 0 22 -8 35 -11 20z"/>
</g>
</svg>
