<svg width="152" height="152" viewBox="0 0 152 152" fill="none" xmlns="http://www.w3.org/2000/svg">
<path opacity="0.52" d="M108.71 15.909C133.671 36.8541 134.337 77.1554 110.197 105.924C86.0565 134.694 46.2518 141.036 21.2904 120.091C-3.67096 99.1459 -4.33674 58.8446 19.8034 30.0755C43.9435 1.30644 83.7482 -5.03614 108.71 15.909ZM102.282 23.5694C81.8118 6.39315 48.2407 11.7425 27.4638 36.5034C6.68694 61.2643 7.24845 95.2543 27.7183 112.431C48.1882 129.607 81.7593 124.258 102.536 99.4966C123.313 74.7357 122.752 40.7457 102.282 23.5694Z" fill="url(#paint0_linear_2067_5112)"/>
<path d="M116.986 29.3811C141.525 49.9712 143.286 88.2698 120.921 114.924C98.5561 141.577 60.5334 146.493 35.9951 125.903C11.4567 105.313 9.69499 67.0139 32.0601 40.3602C54.4252 13.7065 92.448 8.79095 116.986 29.3811ZM110.558 37.0415C90.3988 20.1255 58.6489 24.2301 39.7205 46.788C20.7922 69.346 22.2633 101.326 42.4229 118.242C62.5826 135.158 94.3325 131.054 113.261 108.496C132.189 85.9377 130.718 53.9574 110.558 37.0415Z" fill="url(#paint1_linear_2067_5112)"/>
<path d="M131.544 35.0694C155.71 55.3471 155.731 95.1074 131.591 123.876C107.451 152.646 68.291 159.529 44.125 139.251C19.959 118.974 19.938 79.2135 44.0781 50.4444C68.2182 21.6753 107.378 14.7917 131.544 35.0694ZM125.116 42.7299C105.505 26.2745 72.5526 32.067 51.7385 56.8723C30.9245 81.6776 30.9421 115.136 50.5529 131.591C70.1636 148.046 103.116 142.254 123.931 117.449C144.745 92.6433 144.727 59.1852 125.116 42.7299Z" fill="url(#paint2_linear_2067_5112)"/>
<defs>
<linearGradient id="paint0_linear_2067_5112" x1="108.71" y1="15.909" x2="21.2904" y2="120.091" gradientUnits="userSpaceOnUse">
<stop stop-color="#5E66EE"/>
<stop offset="0.225" stop-color="#7E57BC"/>
<stop offset="0.455" stop-color="#B66368"/>
<stop offset="0.705" stop-color="#D29132" stop-opacity="0.64"/>
<stop offset="1" stop-color="#329CD2" stop-opacity="0.5"/>
</linearGradient>
<linearGradient id="paint1_linear_2067_5112" x1="116.986" y1="29.381" x2="35.9951" y2="125.903" gradientUnits="userSpaceOnUse">
<stop stop-color="#5E66EE" stop-opacity="0.7"/>
<stop offset="0.225" stop-color="#7E57BC" stop-opacity="0.6"/>
<stop offset="0.4" stop-color="#B66368" stop-opacity="0.6"/>
<stop offset="0.595" stop-color="#D29132" stop-opacity="0.42"/>
<stop offset="1" stop-color="#329CD2" stop-opacity="0.2"/>
</linearGradient>
<linearGradient id="paint2_linear_2067_5112" x1="131.544" y1="35.0694" x2="44.125" y2="139.251" gradientUnits="userSpaceOnUse">
<stop stop-color="#5E66EE"/>
<stop offset="0.225" stop-color="#7E57BC"/>
<stop offset="0.49" stop-color="#B66368"/>
<stop offset="0.745" stop-color="#D29132"/>
<stop offset="1" stop-color="#329CD2"/>
</linearGradient>
</defs>
</svg>
