<svg xmlns="http://www.w3.org/2000/svg" width="48" height="48" viewBox="0 0 48 48" fill="none">
<path d="M0 13.9V15.2136H9.3431V13.9H0ZM10.6668 13.9V15.2136H23.9812C23.9812 15.2136 22.6212 13.9 20.82 13.9H10.6668ZM26.5931 13.9V15.2136H34.6481L34.17 13.9H26.5931ZM40.4231 13.9L39.945 15.2136H47.9268V13.9H40.4231ZM0 16.4547V17.7683H9.3431V16.4547H0ZM10.6668 16.4565V17.7683H25.5262C25.5262 17.7683 25.3527 16.7573 25.05 16.4565H10.6668ZM26.5931 16.4565V17.7683H35.5312L35.0887 16.4565H26.5931ZM39.4668 16.4565L39.0243 17.7683H47.9268V16.4565H39.4668ZM2.68498 19.0093V20.3248H6.73123V19.0093H2.68498ZM13.3519 19.0093V20.3248H17.3981V19.0093H13.3519ZM21.3337 19.0093V20.3248H25.38C25.38 20.3248 25.6369 19.6301 25.6369 19.0093H21.3337ZM29.2781 19.0093V20.3248H36.4519L35.9737 19.0093H29.2781ZM38.5856 19.0093L38.1056 20.3248H45.315V19.0093H38.5856ZM2.68498 21.5659V22.8795H6.73123V21.5659H2.68498ZM13.3519 21.5659V22.8795H23.6868C23.6868 22.8795 24.5514 22.2055 24.8268 21.5659H13.3519ZM29.2781 21.5659V22.8795H33.3244V22.1483L33.5813 22.8795H40.9932L41.2688 22.1483V22.8795H45.315V21.5659H37.7194L37.3163 22.6785L36.9112 21.5659H29.2781ZM2.68498 24.1205V25.4342H6.73123V24.1205H2.68498ZM13.3519 24.1205V25.4342H24.8268C24.5514 24.7967 23.6868 24.1205 23.6868 24.1205H13.3519ZM29.2781 24.1205V25.4342H33.3244V24.1205H29.2781ZM34.0594 24.1205L34.5487 25.4342H40.1062L40.5712 24.1205H34.0594ZM41.2687 24.1205V25.4342H45.315V24.1205H41.2687ZM2.68498 26.6752V27.9888H6.73123V26.6752H2.68498ZM13.3519 26.6752V27.9888H17.3981V26.6752H13.3519ZM21.3337 26.6752V27.9888H25.6368C25.6368 27.3688 25.38 26.6752 25.38 26.6752H21.3337ZM29.2781 26.6752V27.9888H33.3244V26.6752H29.2781ZM34.9781 26.6752L35.4525 27.9888H39.1781L39.6563 26.6752H34.9781ZM41.2687 26.6752V27.9888H45.315V26.6752H41.2687ZM0.073104 29.2299V30.5453H9.41621V29.2299H0.073104ZM10.6668 29.2299V30.5453H25.05C25.3527 30.2441 25.5262 29.2299 25.5262 29.2299H10.6668ZM26.6663 29.2299V30.5453H33.3244V29.2299H26.6663ZM35.8987 29.2299L36.3862 30.5453H38.2818L38.7393 29.2299H35.8987ZM41.2687 29.2299V30.5453H48V29.2299H41.2687ZM0.073104 31.7864V33.1H9.41621V31.7864H0.073104ZM10.6668 31.7864V33.0981H20.82C22.6212 33.0981 23.9812 31.7864 23.9812 31.7864H10.6668ZM26.6663 31.7864V33.1H33.3244V31.7864H26.6663ZM36.8231 31.7864L37.2919 33.0963L37.3725 33.0981L37.8488 31.7864H36.8231ZM41.2687 31.7864V33.1H48V31.7864H41.2687Z" fill="#1F70C1"/>
</svg>