<svg width="2376" height="2376" viewBox="0 0 9366 2376" fill="none" xmlns="http://www.w3.org/2000/svg">
<path d="M1627.99 1261.26C1627.99 1021.36 1354.64 748.005 1114.74 748.005C1067.17 747.718 1020.34 759.859 978.907 783.227C937.47 806.596 902.855 840.38 878.487 881.237C848.85 928.593 827.072 980.434 814 1034.75C800.928 980.434 779.15 928.593 749.513 881.237C725.145 840.38 690.53 806.596 649.093 783.227C607.656 759.859 560.835 747.718 513.264 748.005C273.365 748.005 0.00497956 1021.36 0.00497956 1261.26C-0.282228 1308.83 11.8592 1355.66 35.2274 1397.09C58.5957 1438.53 92.3804 1473.15 133.237 1497.51C180.593 1527.15 232.434 1548.93 286.749 1562C232.434 1575.07 180.593 1596.85 133.237 1626.49C92.3804 1650.85 58.5957 1685.47 35.2274 1726.91C11.8592 1768.34 -0.282228 1815.17 0.00497956 1862.74C0.00497956 2102.64 273.365 2375.99 513.264 2375.99C560.835 2376.28 607.656 2364.14 649.093 2340.77C690.53 2317.4 725.145 2283.62 749.513 2242.76C779.15 2195.41 800.928 2143.57 814 2089.25C827.072 2143.57 848.85 2195.41 878.487 2242.76C902.855 2283.62 937.47 2317.4 978.907 2340.77C1020.34 2364.14 1067.17 2376.28 1114.74 2375.99C1354.64 2375.99 1627.99 2102.64 1627.99 1862.74C1628.28 1815.17 1616.14 1768.34 1592.77 1726.91C1569.4 1685.47 1535.62 1650.85 1494.76 1626.49C1447.41 1596.85 1395.57 1575.07 1341.25 1562C1395.57 1548.93 1447.41 1527.15 1494.76 1497.51C1535.62 1473.15 1569.4 1438.53 1592.77 1397.09C1616.14 1355.66 1628.28 1308.83 1627.99 1261.26Z" fill="#FD8FFF"/>
</svg>
