<svg width="9366" height="2376" viewBox="0 0 9366 2376" fill="none" xmlns="http://www.w3.org/2000/svg">
<path d="M2541.8 2167C2427.4 2167 2325.47 2141.33 2236 2090C2148 2037.2 2079.07 1966.07 2029.2 1876.6C1979.33 1787.13 1954.4 1685.93 1954.4 1573C1954.4 1489.4 1968.33 1411.67 1996.2 1339.8C2025.53 1267.93 2066.6 1205.6 2119.4 1152.8C2172.2 1098.53 2233.8 1056.73 2304.2 1027.4C2376.07 996.6 2455.27 981.2 2541.8 981.2C2654.73 981.2 2755.2 1007.6 2843.2 1060.4C2932.67 1111.73 3002.33 1181.4 3052.2 1269.4C3103.53 1357.4 3129.2 1458.6 3129.2 1573C3129.2 1658.07 3114.53 1737.27 3085.2 1810.6C3055.87 1882.47 3014.8 1944.8 2962 1997.6C2909.2 2050.4 2846.87 2092.2 2775 2123C2704.6 2152.33 2626.87 2167 2541.8 2167ZM2541.8 1909.6C2575.53 1909.6 2606.33 1904.47 2634.2 1894.2C2663.53 1883.93 2689.93 1869.27 2713.4 1850.2C2736.87 1829.67 2756.67 1805.47 2772.8 1777.6C2790.4 1749.73 2803.6 1718.93 2812.4 1685.2C2821.2 1650 2825.6 1612.6 2825.6 1573C2825.6 1507 2813.13 1449.07 2788.2 1399.2C2764.73 1349.33 2731.73 1309.73 2689.2 1280.4C2646.67 1251.07 2597.53 1236.4 2541.8 1236.4C2508.07 1236.4 2476.53 1242.27 2447.2 1254C2417.87 1264.27 2391.47 1279.67 2368 1300.2C2344.53 1319.27 2324.73 1342.73 2308.6 1370.6C2292.47 1398.47 2280 1429.27 2271.2 1463C2262.4 1496.73 2258 1533.4 2258 1573C2258 1637.53 2269.73 1695.47 2293.2 1746.8C2316.67 1798.13 2349.67 1838.47 2392.2 1867.8C2434.73 1895.67 2484.6 1909.6 2541.8 1909.6ZM3300.56 2145V2136.2V2004.2V1188V1012V1003.2H3599.76V2004.2V2136.2V2145H3300.56ZM3588.76 1562L3562.36 1254C3578.49 1196.8 3605.63 1148.4 3643.76 1108.8C3681.89 1067.73 3725.16 1036.2 3773.56 1014.2C3823.43 992.2 3871.83 981.2 3918.76 981.2C3937.83 981.2 3952.49 981.2 3962.76 981.2C3973.03 981.2 3982.56 982.667 3991.36 985.6V1271.6C3923.89 1259.87 3865.96 1261.33 3817.56 1276C3769.16 1289.2 3729.56 1311.2 3698.76 1342C3667.96 1372.8 3643.76 1408 3626.16 1447.6C3608.56 1485.73 3596.09 1523.87 3588.76 1562ZM4601.89 2167C4490.43 2167 4391.43 2142.07 4304.89 2092.2C4218.36 2040.87 4150.16 1970.47 4100.29 1881C4051.89 1791.53 4027.69 1688.87 4027.69 1573C4027.69 1485 4041.63 1405.07 4069.49 1333.2C4097.36 1261.33 4136.96 1199 4188.29 1146.2C4239.63 1093.4 4299.76 1053.07 4368.69 1025.2C4439.09 995.867 4516.83 981.2 4601.89 981.2C4698.69 981.2 4783.76 997.333 4857.09 1029.6C4931.89 1061.87 4992.76 1107.33 5039.69 1166C5086.63 1224.67 5115.96 1295.07 5127.69 1377.2L4841.69 1419H4832.89C4827.03 1392.6 4817.49 1368.4 4804.29 1346.4C4792.56 1324.4 4776.43 1305.33 4755.89 1289.2C4736.83 1273.07 4714.83 1260.6 4689.89 1251.8C4664.96 1241.53 4637.83 1236.4 4608.49 1236.4C4565.96 1236.4 4527.83 1245.2 4494.09 1262.8C4460.36 1278.93 4431.03 1301.67 4406.09 1331C4382.63 1360.33 4364.29 1395.53 4351.09 1436.6C4337.89 1477.67 4331.29 1523.13 4331.29 1573C4331.29 1622.87 4337.89 1669.07 4351.09 1711.6C4364.29 1752.67 4382.63 1787.87 4406.09 1817.2C4431.03 1846.53 4460.36 1869.27 4494.09 1885.4C4527.83 1901.53 4565.96 1909.6 4608.49 1909.6C4670.09 1909.6 4721.43 1892 4762.49 1856.8C4805.03 1820.13 4831.43 1771.73 4841.69 1711.6L5138.69 1753.4C5124.03 1839.93 5092.49 1914.73 5044.09 1977.8C4995.69 2039.4 4933.36 2086.33 4857.09 2118.6C4782.29 2150.87 4697.23 2167 4601.89 2167ZM5292.16 2145V2136.2V2004.2V721.6V545.6V536.8H5591.36V1137.4C5614.83 1105.13 5642.69 1077.27 5674.96 1053.8C5707.23 1030.33 5743.16 1012.73 5782.76 1001C5822.36 987.8 5864.16 981.2 5908.16 981.2C5988.83 981.2 6061.43 998.067 6125.96 1031.8C6191.96 1064.07 6244.03 1111 6282.16 1172.6C6320.29 1232.73 6339.36 1304.6 6339.36 1388.2V2004.2V2136.2V2145H6040.16V2136.2V2004.2V1463C6040.16 1416.07 6032.09 1375.73 6015.96 1342C5999.83 1308.27 5975.63 1282.6 5943.36 1265C5912.56 1245.93 5875.16 1236.4 5831.16 1236.4C5791.56 1236.4 5754.89 1247.4 5721.16 1269.4C5688.89 1291.4 5661.03 1320.73 5637.56 1357.4C5615.56 1394.07 5600.16 1435.13 5591.36 1480.6V2004.2V2136.2V2145H5292.16ZM6854.64 2002V2134V2145H6555.44V2134V2002V1188V1014.2V1003.2H6854.64V2002ZM6702.84 871.2C6652.98 871.2 6610.44 853.6 6575.24 818.4C6541.51 783.2 6524.64 740.667 6524.64 690.8C6524.64 640.933 6541.51 598.4 6575.24 563.2C6610.44 528 6652.98 510.4 6702.84 510.4C6755.64 510.4 6799.64 528 6834.84 563.2C6870.04 598.4 6887.64 640.933 6887.64 690.8C6887.64 740.667 6870.04 783.2 6834.84 818.4C6799.64 853.6 6755.64 871.2 6702.84 871.2ZM7563.66 2167C7459.53 2167 7367.13 2141.33 7286.46 2090C7205.79 2038.67 7141.99 1968.27 7095.06 1878.8C7049.59 1789.33 7026.86 1687.4 7026.86 1573C7026.86 1486.47 7040.06 1407.27 7066.46 1335.4C7092.86 1263.53 7129.53 1201.2 7176.46 1148.4C7224.86 1095.6 7281.33 1054.53 7345.86 1025.2C7411.86 995.867 7484.46 981.2 7563.66 981.2C7612.06 981.2 7657.53 987.8 7700.06 1001C7742.59 1014.2 7779.99 1032.53 7812.26 1056C7845.99 1078 7872.39 1102.93 7891.46 1130.8V721.6V545.6V536.8H8188.46V2002V2136.2V2145H7891.46V2015.2C7863.59 2054.8 7819.59 2090 7759.46 2120.8C7699.33 2151.6 7634.06 2167 7563.66 2167ZM7618.66 1909.6C7668.53 1909.6 7712.53 1898.6 7750.66 1876.6C7790.26 1853.13 7822.53 1820.87 7847.46 1779.8C7872.39 1737.27 7887.06 1690.33 7891.46 1639V1500.4C7887.06 1447.6 7872.39 1401.4 7847.46 1361.8C7822.53 1322.2 7790.26 1291.4 7750.66 1269.4C7712.53 1247.4 7668.53 1236.4 7618.66 1236.4C7576.13 1236.4 7537.26 1245.2 7502.06 1262.8C7468.33 1278.93 7438.26 1301.67 7411.86 1331C7386.93 1360.33 7367.13 1395.53 7352.46 1436.6C7339.26 1476.2 7332.66 1520.2 7332.66 1568.6C7332.66 1634.6 7344.39 1693.27 7367.86 1744.6C7392.79 1795.93 7426.53 1836.27 7469.06 1865.6C7513.06 1894.93 7562.93 1909.6 7618.66 1909.6ZM8849.44 2167C8751.17 2167 8664.64 2150.87 8589.84 2118.6C8516.51 2084.87 8458.57 2040.87 8416.04 1986.6C8374.97 1932.33 8351.51 1873.67 8345.64 1810.6L8611.84 1742.4H8620.64C8627.97 1784.93 8642.64 1819.4 8664.64 1845.8C8688.11 1872.2 8715.97 1892 8748.24 1905.2C8780.51 1918.4 8814.24 1925 8849.44 1925C8883.17 1925 8911.77 1920.6 8935.24 1911.8C8960.17 1901.53 8979.24 1887.6 8992.44 1870C9005.64 1850.93 9012.24 1829.67 9012.24 1806.2C9012.24 1778.33 9001.97 1755.6 8981.44 1738C8962.37 1720.4 8934.51 1707.2 8897.84 1698.4L8686.64 1647.8C8654.37 1640.47 8619.91 1630.2 8583.24 1617C8548.04 1603.8 8515.04 1585.47 8484.24 1562C8453.44 1538.53 8428.51 1508.47 8409.44 1471.8C8390.37 1435.13 8380.84 1389.67 8380.84 1335.4C8380.84 1269.4 8399.17 1210 8435.84 1157.2C8473.97 1102.93 8526.04 1060.4 8592.04 1029.6C8659.51 997.333 8737.24 981.2 8825.24 981.2C8907.37 981.2 8981.44 995.133 9047.44 1023C9113.44 1049.4 9166.97 1085.33 9208.04 1130.8C9250.57 1176.27 9276.97 1226.87 9287.24 1282.6L9021.04 1353H9012.24C9006.37 1317.8 8993.91 1289.93 8974.84 1269.4C8955.77 1247.4 8933.04 1231.27 8906.64 1221C8881.71 1210.73 8854.57 1205.6 8825.24 1205.6C8794.44 1205.6 8768.04 1210.73 8746.04 1221C8724.04 1231.27 8707.17 1244.47 8695.44 1260.6C8683.71 1275.27 8677.84 1292.13 8677.84 1311.2C8677.84 1337.6 8688.11 1358.13 8708.64 1372.8C8729.17 1387.47 8758.51 1399.93 8796.64 1410.2L8968.24 1449.8C9028.37 1464.47 9084.11 1483.53 9135.44 1507C9188.24 1529 9230.77 1563.47 9263.04 1610.4C9295.31 1655.87 9311.44 1719.67 9311.44 1801.8C9311.44 1866.33 9291.64 1926.47 9252.04 1982.2C9213.91 2037.93 9159.64 2082.67 9089.24 2116.4C9020.31 2150.13 8940.37 2167 8849.44 2167Z" fill="white"/>
<path d="M1627.99 1261.26C1627.99 1021.36 1354.64 748.005 1114.74 748.005C1067.17 747.718 1020.34 759.859 978.907 783.227C937.47 806.596 902.855 840.38 878.487 881.237C848.85 928.593 827.072 980.434 814 1034.75C800.928 980.434 779.15 928.593 749.513 881.237C725.145 840.38 690.53 806.596 649.093 783.227C607.656 759.859 560.835 747.718 513.264 748.005C273.365 748.005 0.00497956 1021.36 0.00497956 1261.26C-0.282228 1308.83 11.8592 1355.66 35.2274 1397.09C58.5957 1438.53 92.3804 1473.15 133.237 1497.51C180.593 1527.15 232.434 1548.93 286.749 1562C232.434 1575.07 180.593 1596.85 133.237 1626.49C92.3804 1650.85 58.5957 1685.47 35.2274 1726.91C11.8592 1768.34 -0.282228 1815.17 0.00497956 1862.74C0.00497956 2102.64 273.365 2375.99 513.264 2375.99C560.835 2376.28 607.656 2364.14 649.093 2340.77C690.53 2317.4 725.145 2283.62 749.513 2242.76C779.15 2195.41 800.928 2143.57 814 2089.25C827.072 2143.57 848.85 2195.41 878.487 2242.76C902.855 2283.62 937.47 2317.4 978.907 2340.77C1020.34 2364.14 1067.17 2376.28 1114.74 2375.99C1354.64 2375.99 1627.99 2102.64 1627.99 1862.74C1628.28 1815.17 1616.14 1768.34 1592.77 1726.91C1569.4 1685.47 1535.62 1650.85 1494.76 1626.49C1447.41 1596.85 1395.57 1575.07 1341.25 1562C1395.57 1548.93 1447.41 1527.15 1494.76 1497.51C1535.62 1473.15 1569.4 1438.53 1592.77 1397.09C1616.14 1355.66 1628.28 1308.83 1627.99 1261.26Z" fill="#FD8FFF"/>
</svg>
