<svg xmlns="http://www.w3.org/2000/svg" version="1.1" xmlns:xlink="http://www.w3.org/1999/xlink" xmlns:svgjs="http://svgjs.dev/svgjs" width="429" height="429"><svg viewBox="0 0 429 429" width="429" height="429" xmlns="http://www.w3.org/2000/svg" fill-rule="evenodd" clip-rule="evenodd" stroke-linejoin="round" stroke-miterlimit="2">
  <path d="M214.182 0c118.21 0 214.182 95.972 214.182 214.182s-95.972 214.182-214.182 214.182S0 332.392 0 214.182 95.972 0 214.182 0zm0 20.184c107.07 0 193.998 86.927 193.998 193.998 0 107.07-86.928 193.998-193.998 193.998-107.071 0-193.998-86.928-193.998-193.998 0-107.071 86.927-193.998 193.998-193.998zm6.88 42.755c-.876 1.536-2.359 1.328-2.391 1.335-20.467 4.171-134.504 23.594-126.939 139.823 2.734 42.014 35.449 70.669 52.96 78.805 18.456 8.576 65.198 20.229 96.05-17.115 15.526-18.794 14.649-54.023-.612-59.802-17.887-6.774-19.887 9.482-27.302 8.706-6.45-.675-10.776-13.494-5.937-24.058 3.377-7.374 16.59-14.027 28.579-13.484 34.96 1.582 60.423 35.87 48.407 85.019-5.574 22.796-27.891 55.725-71.249 64.517-43.284 8.778-88.306-5.769-124.158-58.084-.742-1.083-4.878 1.576 11.96 26.446 17.861 26.378 44.929 49.688 85.669 61.287 5.487 1.562 11.883 3.284 9.714 4.515-24.896 14.139-90.697-14.6-120.541-63.317-27.599-45.052-23.137-81.39-22.469-99.467 1.56-42.251 36.47-120.107 115.168-137.873 34.662-7.825 55.993-2.343 53.091 2.747zm36.52 286.976c0-1.628 1.233-2.144 1.259-2.157 14.406-7.603 99.993-81.622 42.978-171.135-20.61-32.357-53.694-37.438-71.784-37.438-18.091 0-66.638 9.145-66.638 57.488 0 37.326 33.22 50.175 47.377 49.614a3.179 3.179 0 013.572 2.475l.015.013c.048.229.071.462.064.696l-.049.46a3.157 3.157 0 01-.505 1.276c-6.315 10.399-64.627 18.13-82.191-31.969-7.095-20.237-10.896-54.175 13.964-82.977 28.618-33.156 91.117-57.958 145.358-17.821 86.088 63.705 62.268 176.634 3.48 219.18-19.471 14.091-36.9 17.69-36.9 12.295zm77.094-253.627c12.923 11.547 18.724 26.172 12.946 32.638-5.778 6.466-20.96 2.34-33.883-9.207-12.923-11.548-18.724-26.172-12.946-32.638 5.778-6.466 20.96-2.34 33.883 9.207z" fill="url(#_Linear1)" />
  <defs>
    <linearGradient id="_Linear1" x1="0" y1="0" x2="1" y2="0" gradientUnits="userSpaceOnUse" gradientTransform="rotate(45) scale(605.798)">
      <stop offset="0" stop-color="#ff3a00" />
      <stop offset="1" stop-color="#552294" />
    </linearGradient>
  </defs>
</svg><style>@media (prefers-color-scheme: light) { :root { filter: none; } }
@media (prefers-color-scheme: dark) { :root { filter: none; } }
</style></svg>