<svg width="128" height="128" viewBox="0 0 128 128" fill="none" xmlns="http://www.w3.org/2000/svg">
<rect width="128" height="128" rx="64" fill="white"/>
<path d="M64.2239 45.001C53.9537 45.0554 40.6404 47.1954 32.3638 51.8792C27.8301 54.4448 24.9414 58.1607 23.9145 62.4745C22.9019 66.7287 23.8033 71.1212 25.9792 74.9473C30.8518 83.515 41.6923 84.3933 48.6684 81.528C54.0904 79.3011 59.8648 78.3174 64.265 78.294C68.5484 78.2714 71.9625 78.894 78.9818 81.3125C82.9885 82.693 87.2501 83.365 91.2521 82.623C95.3899 81.8558 99.0492 79.6024 101.573 75.5875C103.895 71.8928 105.049 67.5739 104.245 63.2706C103.429 58.8976 100.687 55.0592 96.2131 52.2607C87.9029 47.0628 74.5008 44.9466 64.2239 45.001ZM64.265 52.7263C73.9582 52.675 85.6158 54.7508 92.0988 58.8059C95.0214 60.6339 96.2686 62.7413 96.6316 64.685C97.0075 66.6983 96.5306 69.0675 95.012 71.4834C93.6948 73.5788 91.9516 74.6357 89.8368 75.0278C87.5862 75.445 84.7447 75.1252 81.51 74.0107C74.0464 71.4392 69.7105 70.5401 64.2239 70.5691C58.8542 70.5976 52.0898 71.7679 45.7196 74.3843C40.9035 76.3624 34.9781 75.1141 32.7153 71.1353C31.3235 68.6881 30.9671 66.2851 31.4494 64.2593C31.9174 62.2932 33.2764 60.2447 36.1852 58.5986C42.7937 54.8589 54.5651 52.7777 64.265 52.7263Z" fill="black"/>
</svg>
