<svg width="48" height="48" viewBox="0 0 48 48" fill="none" xmlns="http://www.w3.org/2000/svg">
<rect width="48" height="48" fill="black"/>
<path d="M31.7681 22.9147C31.7247 22.9162 31.6712 22.918 31.6013 22.918L31.5973 22.9125C31.4008 22.9563 31.1566 22.9405 30.9068 22.9244C30.166 22.8766 29.376 22.8256 29.6379 24.3144C29.6963 24.6423 29.2916 24.7229 29.0232 24.7365C28.2613 24.7775 27.4967 24.7939 26.7331 24.7789C26.5886 24.7766 26.4408 24.657 26.3074 24.549C26.2844 24.5304 26.2616 24.5121 26.2395 24.4947C26.2158 24.4756 26.3047 24.2283 26.3508 24.2255C27.0955 24.1828 27.3656 23.6866 27.6349 23.1918C27.7706 22.9429 27.9059 22.6943 28.1013 22.5041C29.8702 20.7811 31.6765 19.0911 33.7427 17.703C33.9443 17.5677 34.1905 17.4434 34.3574 17.6784C34.4859 17.86 34.3656 17.9628 34.2421 18.0683C34.1881 18.1146 34.1335 18.1612 34.0987 18.2153C33.974 18.4099 33.7525 18.5532 33.5326 18.6958C33.1002 18.9757 32.6726 19.2527 32.9905 19.9081C33.2662 20.4756 33.0195 20.5763 32.6402 20.7311L32.6247 20.7374C32.4626 20.8043 32.2965 20.8649 32.1307 20.9256C31.7776 21.0547 31.4252 21.1836 31.1092 21.3714C30.7922 21.5599 30.6406 21.9274 31.1592 22.1447C32.2925 22.6188 35.2265 21.8619 35.7993 20.818C36.3347 19.8413 37.1347 19.1169 37.9342 18.393C38.3829 17.9868 38.8313 17.5808 39.2327 17.1305C40.0982 16.1604 41.1115 15.3177 42.1252 14.4745C42.6293 14.0554 43.1335 13.6362 43.6196 13.2011C43.9853 12.8732 44.1369 12.4415 43.8506 11.9701C43.5654 11.5015 43.0816 11.4386 42.6268 11.5438C39.6302 12.2365 36.7352 13.171 34.164 14.9158C30.0591 17.7016 25.9474 20.4779 21.8023 23.2049C20.3895 24.1354 19.5343 23.6804 19.063 22.0695C18.016 18.4927 16.4807 15.3735 12.07 14.8884C10.4584 14.7108 9.27646 15.7027 9.51006 17.2767C9.62825 18.0746 9.52119 18.8261 9.13046 19.5747C9.04431 19.74 8.95733 19.9054 8.87026 20.071C8.26862 21.2149 7.66177 22.3687 7.28523 23.5861C7.25372 23.6879 7.21763 23.7951 7.18045 23.9056C6.84474 24.9023 6.41797 26.1693 8.45464 26.2394C8.53809 26.2422 8.698 26.4484 8.67853 26.525C8.63404 26.7067 8.54364 26.9225 8.39903 27.0277C6.44673 28.4419 4.84207 30.1537 4.15236 32.4696C3.80334 33.6391 4.03417 34.8537 5.05063 35.7596C5.77789 36.4072 6.70676 36.7828 7.52161 36.2378C8.26486 35.7407 9.08048 35.4072 9.89443 35.0743C10.6109 34.7814 11.326 34.4889 11.9894 34.0859C12.1493 33.9887 12.3435 33.8998 12.54 33.8098C13.0835 33.5614 13.6448 33.3044 13.5467 32.8398C13.3924 32.1117 12.6096 31.4367 11.9574 30.9065C11.3108 30.3806 9.66304 26.8487 9.85904 26.0003C10.1336 24.8121 10.7518 23.7835 11.3706 22.7538C11.8987 21.8748 12.4273 20.995 12.7431 20.0147C12.8738 19.6102 13.3743 19.3889 13.8569 19.5501C14.1843 19.6592 14.1286 19.9545 14.0766 20.2297C14.0752 20.2373 14.0738 20.2448 14.0724 20.2524C13.8767 21.3099 13.6849 22.3688 13.4929 23.4276C13.397 23.9569 13.3011 24.4861 13.2047 25.0152C13.1435 25.3541 13.2505 25.6246 13.6079 25.6929C14.2963 25.8254 14.2809 26.1301 13.9709 26.6534C13.6413 27.2081 13.5955 27.8858 13.9639 28.3981C14.3338 28.9132 14.9526 29.0212 15.5811 28.7124C15.9732 28.5211 16.2778 28.6918 16.2735 29.0799C16.2485 31.1526 17.1315 30.6852 18.2064 29.7808C18.3053 29.6975 18.4399 29.6514 18.5701 29.607C18.5937 29.5989 18.6172 29.5908 18.6403 29.5827C18.7422 29.547 18.8443 29.5114 18.9464 29.4758C20.9697 28.7703 22.9905 28.0659 24.1328 26.0304C24.221 25.8714 24.5106 25.7944 24.7361 25.7344C24.7489 25.731 24.7615 25.7277 24.7739 25.7243C26.0802 25.3756 27.4139 25.3704 28.7467 25.3651C29.7477 25.3612 30.7479 25.3573 31.7362 25.2079C32.7111 25.0603 33.7732 24.5015 33.7817 23.5766C33.7894 22.8308 33.2084 22.8772 32.6281 22.9234C32.3769 22.9435 32.1258 22.9635 31.9225 22.9194C31.8813 22.911 31.838 22.9124 31.7681 22.9147Z" fill="white"/>
<path d="M16.4154 33.3569C16.1735 34.9391 16.7881 36.293 19.3036 36.2754H19.3022C21.4505 36.1893 23.8813 34.9117 26.2561 33.2778C27.8246 32.1984 29.1804 31.0602 30.0593 29.3784C30.706 28.1419 30.3735 27.15 29.3988 26.2824C28.9691 25.8999 28.5589 25.8575 28.0778 26.3193C26.3701 27.9616 24.2441 28.8579 22.061 29.7596C21.5046 29.9895 20.871 30.1043 20.2329 30.22C18.5327 30.528 16.8006 30.8417 16.4154 33.3569Z" fill="white"/>
</svg>
