<svg width="48" height="48" viewBox="0 0 48 48" fill="none" xmlns="http://www.w3.org/2000/svg">
<rect width="48" height="48" fill="#2E2E2E"/>
<path d="M23.5966 11.4237H11.9581V23.1587H8.5V11.9706C8.50009 9.78731 10.2599 8.01784 12.431 8.01661L23.5966 8.0083V11.4237ZM35.5655 8C37.7375 8.00014 39.4998 9.76975 39.5 11.954V12.0821C39.4998 13.7536 38.4535 15.244 36.8882 15.8059L28.6181 18.7658V15.4002L35.605 12.7239C35.8669 12.628 36.0417 12.3777 36.0418 12.0963C36.0418 11.7273 35.7436 11.4273 35.3764 11.4273H28.539C28.1718 11.4273 27.8736 11.7273 27.8736 12.0963V19.7374H39.2618V23.1527H28.3511C26.1776 23.1527 24.4167 21.3832 24.4166 19.1988V11.954C24.4169 9.76966 26.1778 8 28.3511 8H35.5655Z" fill="white"/>
<path d="M39.2618 28.8012C39.2616 26.6181 37.5006 24.8473 35.3272 24.8473H24.4166V28.2626H35.8037V35.9049C35.8034 36.2735 35.5062 36.5725 35.1393 36.5728H28.3008C27.9339 36.5727 27.6356 36.2737 27.6353 35.9049C27.6353 35.6233 27.8112 35.372 28.0735 35.2761L35.0604 32.601V29.2342L26.789 32.1941C25.2235 32.7561 24.1783 34.2474 24.1783 35.9191V36.0461C24.1786 38.2304 25.9395 40 28.1129 40H35.3272C37.5007 40 39.2617 38.2304 39.2618 36.0461V28.8012Z" fill="white"/>
<path d="M23.7343 39.9989L16.0375 32.3044L23.6159 24.8496H18.9187L13.7309 29.9543C13.0706 30.605 12.6979 31.4945 12.6979 32.4242C12.698 33.3538 13.0697 34.2424 13.7309 34.893L18.9187 39.9989H23.7343Z" fill="white"/>
<path d="M8.67356 39.9953H12.1317V24.8556H8.67356V39.9953Z" fill="white"/>
</svg>
