<svg version="1.2" xmlns="http://www.w3.org/2000/svg" viewBox="0 0 33 21" width="33" height="21">
	<style>
		.s0 { fill: #ffffff } 
	</style>
	<path class="s0" d="m27.69 0.7l-0.6 2.18c-0.04 0.12-0.16 0.18-0.27 0.15l-10.21-3.02q-0.11-0.03-0.2 0.04l-10.11 8.03q-0.04 0.04-0.1 0.05l-6.02 0.92c-0.11 0.01-0.19 0.11-0.18 0.22l0.03 0.35c0.01 0.11 0.1 0.19 0.21 0.19l6.98 0.18 0.08 0.01 5.17-2.74q0.11-0.05 0.22 0.02l3.66 2.58q0.09 0.07 0.09 0.18l-0.03 3.43q0 0.06 0.04 0.12l5.14 7.32q0.07 0.09 0.18 0.09h1.63c0.16 0 0.27-0.17 0.19-0.31l-3.67-6.89q-0.05-0.11 0.01-0.21l1.91-3.04q0.04-0.05 0.09-0.08l6.83-3.43q0.12-0.06 0.22 0.01l1.96 1.29q0.05 0.03 0.12 0.03h1.77c0.17 0 0.27-0.19 0.18-0.33l-4.93-7.4c-0.1-0.16-0.34-0.12-0.39 0.06z"/>
</svg>