<svg version="1.2" xmlns="http://www.w3.org/2000/svg" viewBox="0 0 31 34" width="31" height="34">
	<style>
		.s0 { fill: #ffffff } 
		.s1 { fill: #1c2024 } 
	</style>
	<path class="s0" d="m3.1 10.03c0.76-1.3 2.42-1.75 3.72-1l9.66 5.58q0.33 0.18 0.6 0.44 0.01 0.01 0.02 0.02 0.01 0.01 0.02 0.03 0.37 0.37 0.56 0.84 0.01 0.01 0.01 0.02 0.01 0.02 0.02 0.04 0 0.01 0.01 0.03 0 0.01 0.01 0.03 0.01 0.02 0.01 0.03 0.01 0.02 0.01 0.03 0.09 0.27 0.13 0.55 0.02 0.21 0.02 0.43v11.11c0 1.51-1.22 2.73-2.73 2.73-1.5 0-2.72-1.22-2.72-2.73v-3.66c0-1.26-1.37-2.05-2.46-1.42l-3.17 1.83c-1.3 0.76-2.96 0.31-3.72-0.99-0.75-1.31-0.3-2.97 1-3.72l3.17-1.83c1.09-0.63 1.09-2.21 0-2.84l-3.17-1.83c-1.3-0.75-1.75-2.42-1-3.72z"/>
	<path class="s0" d="m15.17 3.06c1.51 0 2.73 1.22 2.73 2.73v3.66c0 1.26 1.36 2.05 2.45 1.42l3.17-1.83c1.3-0.76 2.97-0.31 3.72 0.99 0.75 1.3 0.31 2.97-0.99 3.72l-3.17 1.83c-1.1 0.63-1.1 2.21 0 2.84l3.17 1.83c1.3 0.75 1.74 2.42 0.99 3.72-0.75 1.3-2.42 1.75-3.72 1l-5.62-3.25v-4.72q0-0.01-0.01-0.01 0-0.01 0-0.03 0-0.04 0-0.08 0-0.07-0.01-0.15 0-0.01 0-0.02-0.01-0.05-0.01-0.1-0.01-0.07-0.03-0.13 0-0.02 0-0.04-0.01-0.04-0.02-0.09-0.02-0.06-0.04-0.13-0.01-0.02-0.01-0.05-0.02-0.04-0.03-0.08-0.02-0.05-0.04-0.11-0.01-0.03-0.03-0.05-0.01-0.04-0.03-0.08-0.03-0.06-0.06-0.11-0.01-0.04-0.03-0.07-0.01-0.02-0.02-0.03-0.01-0.01-0.01-0.02-0.03-0.06-0.07-0.11-0.02-0.04-0.05-0.07-0.01-0.02-0.03-0.05-0.04-0.05-0.07-0.09-0.03-0.04-0.06-0.07-0.02-0.03-0.05-0.06-0.03-0.03-0.07-0.07-0.02-0.02-0.05-0.05-0.03-0.04-0.07-0.07-0.03-0.03-0.07-0.06-0.03-0.02-0.06-0.05-0.04-0.04-0.09-0.07-0.02-0.01-0.04-0.03-0.04-0.03-0.08-0.05-0.05-0.04-0.11-0.07-0.01 0-0.01-0.01l-4.09-2.36v-6.49c0-1.51 1.22-2.73 2.72-2.73z"/>
	<path fill-rule="evenodd" class="s1" d="m15.17 0.5c2.92 0 5.29 2.37 5.29 5.29v2.05l1.78-1.03c2.53-1.45 5.76-0.59 7.22 1.94 1.46 2.53 0.6 5.76-1.93 7.22l-1.78 1.03 1.78 1.03c2.53 1.46 3.39 4.69 1.93 7.22-1.46 2.53-4.69 3.4-7.22 1.94l-1.78-1.03v2.05c0 2.92-2.37 5.29-5.29 5.29-2.92 0-5.28-2.37-5.28-5.29v-2.05l-1.79 1.03c-2.52 1.45-5.76 0.59-7.22-1.94-1.46-2.53-0.59-5.76 1.94-7.22l1.78-1.03-1.78-1.03c-2.53-1.46-3.4-4.69-1.94-7.22 1.46-2.53 4.7-3.4 7.22-1.94l9.6 5.54q0.86 0.47 1.52 1.24 0.03 0.04 0.06 0.08 0.01 0.01 0.02 0.02 0.38 0.48 0.64 1.01 0.01 0.03 0.02 0.06 0.02 0.02 0.03 0.05 0.02 0.04 0.03 0.08 0.01 0.02 0.02 0.03 0.37 0.89 0.42 1.82 0.01 0.22 0 0.44v6.02l3.06 1.77c1.3 0.75 2.97 0.3 3.72-1 0.75-1.3 0.31-2.97-0.99-3.72l-3.17-1.83c-1.1-0.63-1.1-2.21 0-2.84l3.17-1.83c1.3-0.75 1.74-2.42 0.99-3.72-0.75-1.3-2.41-1.75-3.72-0.99l-3.17 1.82c-1.09 0.64-2.45-0.15-2.45-1.41v-3.66c0-1.51-1.22-2.73-2.73-2.73-1.5 0-2.72 1.22-2.72 2.73v3.53l-2.56-1.48v-2.05c0-2.92 2.36-5.29 5.28-5.29zm-8.35 8.53c-1.3-0.75-2.96-0.3-3.72 1-0.75 1.3-0.3 2.97 1 3.72l3.17 1.83c1.09 0.63 1.09 2.21 0 2.84l-3.17 1.83c-1.3 0.75-1.75 2.42-1 3.72 0.76 1.3 2.42 1.75 3.72 0.99l3.17-1.83c1.09-0.63 2.46 0.16 2.46 1.42v3.66c0 1.51 1.22 2.73 2.72 2.73 1.51 0 2.73-1.22 2.73-2.73v-11.11q0-0.22-0.02-0.43-0.04-0.28-0.13-0.55 0-0.01-0.01-0.03 0-0.01-0.01-0.03-0.01-0.02-0.01-0.03-0.01-0.02-0.01-0.03-0.01-0.02-0.02-0.04 0-0.01-0.01-0.02-0.19-0.47-0.56-0.84-0.01-0.02-0.02-0.03-0.01-0.01-0.02-0.02-0.27-0.26-0.6-0.44z"/>
</svg>