<svg width="129" height="40" viewBox="0 0 129 40" fill="none" xmlns="http://www.w3.org/2000/svg">
<path d="M8.10422 13.0309C8.85625 11.7283 10.5219 11.282 11.8244 12.034L21.4823 17.61C21.6971 17.7274 21.8973 17.8747 22.0764 18.0497C22.0843 18.0574 22.092 18.0653 22.0998 18.073C22.1076 18.0808 22.1154 18.0886 22.1231 18.0965C22.3651 18.344 22.5536 18.6321 22.6841 18.9429C22.6865 18.9484 22.6887 18.954 22.691 18.9596C22.6966 18.9732 22.7022 18.9867 22.7076 19.0003C22.7112 19.0095 22.7147 19.0188 22.7182 19.028C22.7225 19.0391 22.7267 19.0502 22.7308 19.0613C22.7343 19.071 22.7378 19.0808 22.7412 19.0906C22.7449 19.1008 22.7485 19.1111 22.752 19.1214C22.8132 19.3005 22.8547 19.4832 22.8772 19.6666C22.8948 19.8089 22.9012 19.9528 22.8961 20.0971V31.2129C22.8961 32.717 21.6768 33.9362 20.1727 33.9363C18.6687 33.9363 17.4494 32.717 17.4494 31.2129V27.553C17.4494 26.2921 16.0845 25.5042 14.9926 26.1346L11.8238 27.9642C10.5213 28.7162 8.85564 28.27 8.10359 26.9675C7.35155 25.6649 7.79788 23.9993 9.10045 23.2473L12.2699 21.4173C13.3617 20.7868 13.3617 19.2109 12.2699 18.5805L9.10107 16.7509C7.79852 15.9989 7.35221 14.3334 8.10422 13.0309Z" fill="white"/>
<path d="M20.1732 6.06299C21.6773 6.06299 22.8966 7.28238 22.8966 8.78646V12.4465C22.8968 13.7071 24.2617 14.4951 25.3535 13.865L28.522 12.0354C29.8245 11.2834 31.4911 11.7296 32.2431 13.0321C32.9948 14.3346 32.5479 16.0003 31.2455 16.7523L28.076 18.5818C26.9843 19.2122 26.9843 20.7883 28.076 21.4187L31.2455 23.2483C32.5479 24.0003 32.9941 25.6659 32.2422 26.9685C31.4901 28.271 29.8245 28.7172 28.522 27.9652L22.8957 24.7162V19.9993C22.8957 19.9959 22.8948 19.9921 22.8947 19.9887C22.8947 19.9803 22.8939 19.9718 22.8937 19.9634C22.8934 19.9363 22.8929 19.9091 22.8918 19.882C22.8896 19.8321 22.8861 19.7823 22.8811 19.7327C22.8805 19.7263 22.8799 19.7197 22.8792 19.7133C22.8755 19.6781 22.8717 19.6428 22.8666 19.6076C22.8603 19.5648 22.8526 19.5221 22.8443 19.4796C22.8417 19.4661 22.8394 19.4524 22.8365 19.4389C22.8305 19.4101 22.8232 19.3814 22.8162 19.3526C22.8057 19.3097 22.7939 19.2671 22.7813 19.2246C22.7759 19.2066 22.7715 19.1882 22.7658 19.1704C22.757 19.1431 22.7473 19.116 22.7376 19.0889C22.7249 19.053 22.7111 19.0176 22.6969 18.9823C22.6894 18.9635 22.6826 18.9445 22.6746 18.926C22.6633 18.8997 22.651 18.8736 22.6387 18.8475C22.6212 18.8099 22.6027 18.7728 22.5835 18.736C22.5717 18.7136 22.56 18.6912 22.5476 18.6691C22.5418 18.6588 22.5371 18.6474 22.5311 18.6371C22.5273 18.6304 22.5224 18.6243 22.5185 18.6177C22.4969 18.5809 22.4741 18.5449 22.4507 18.5091C22.4356 18.4862 22.4198 18.4637 22.4041 18.4412C22.3924 18.4244 22.3812 18.4073 22.3692 18.3908C22.3458 18.3589 22.3213 18.3278 22.2965 18.2968C22.2794 18.2755 22.2619 18.2545 22.2441 18.2338C22.227 18.2136 22.2104 18.1932 22.1928 18.1737C22.1699 18.1484 22.1458 18.1244 22.122 18.1C22.106 18.0836 22.0898 18.0674 22.0735 18.0515C22.0488 18.0273 22.0244 18.0028 21.9988 17.9797C21.978 17.9609 21.9564 17.9427 21.9349 17.9245C21.9135 17.9064 21.8918 17.8886 21.8699 17.8712C21.8398 17.8471 21.8098 17.823 21.7788 17.8004C21.7655 17.7907 21.7515 17.7817 21.738 17.7723C21.7116 17.7537 21.6847 17.7356 21.6576 17.718C21.6227 17.6953 21.5876 17.673 21.5519 17.652C21.5463 17.6487 21.541 17.6446 21.5354 17.6414L17.4497 15.2825V8.78646C17.4497 7.28251 18.6693 6.0632 20.1732 6.06299Z" fill="white"/>
<path fill-rule="evenodd" clip-rule="evenodd" d="M20.1741 3.49854C23.0937 3.49861 25.4606 5.86545 25.4606 8.78508V10.8436L27.2427 9.81479C29.7712 8.35502 33.0044 9.22136 34.4643 11.7498C35.924 14.2783 35.0576 17.5114 32.5292 18.9713L30.7462 20.0005L32.5286 21.0296C35.057 22.4895 35.9234 25.7227 34.4636 28.2512C33.0038 30.7796 29.7705 31.6459 27.242 30.1861L25.4592 29.1567V31.2147C25.4592 34.1344 23.0923 36.5012 20.1727 36.5013C17.253 36.5012 14.8861 34.1344 14.8861 31.2147V29.1559L13.1039 30.185C10.5754 31.6448 7.3423 30.7784 5.88248 28.25C4.42268 25.7215 5.28894 22.4884 7.81737 21.0285L9.6002 19.9991L7.818 18.9702C5.28955 17.5103 4.42331 14.2771 5.8831 11.7486C7.34297 9.22018 10.5761 8.35391 13.1045 9.8137L22.7017 15.3545C23.2707 15.6634 23.7877 16.0794 24.2195 16.5937C24.2407 16.6188 24.2615 16.6443 24.2821 16.6698C24.2884 16.6776 24.2948 16.6853 24.3011 16.6931C24.5521 17.0065 24.7645 17.3453 24.9362 17.7019C24.9456 17.7213 24.9546 17.7408 24.9638 17.7603C24.9712 17.7763 24.9788 17.7922 24.9861 17.8083C24.9992 17.8369 25.0118 17.8657 25.0243 17.8945C25.0284 17.904 25.0326 17.9134 25.0367 17.923C25.2889 18.5119 25.4262 19.1271 25.4556 19.7407C25.463 19.8878 25.4642 20.0354 25.4592 20.1833V26.1969L28.5224 27.9655C29.8249 28.7175 31.4904 28.2712 32.2425 26.9687C32.9944 25.6662 32.5482 24.0007 31.2457 23.2486L28.0767 21.419C26.9848 20.7886 26.9848 19.2125 28.0767 18.5822L31.2464 16.7523C32.5488 16.0002 32.995 14.3346 32.2431 13.0321C31.491 11.7296 29.8255 11.2834 28.523 12.0354L25.3541 13.8648C24.2623 14.4952 22.8974 13.7072 22.8974 12.4464V8.78664C22.8974 7.28263 21.6781 6.06338 20.1741 6.06327C18.67 6.06327 17.4507 7.28257 17.4507 8.78664V12.3227L14.8875 10.8429V8.78508C14.8875 5.86541 17.2544 3.49855 20.1741 3.49854ZM11.8245 12.0343C10.522 11.2822 8.85634 11.7286 8.10429 13.0311C7.3523 14.3337 7.7986 15.9992 9.10115 16.7512L12.27 18.5808C13.3618 19.2112 13.3618 20.7871 12.27 21.4175L9.10052 23.2475C7.79796 23.9995 7.35163 25.6652 8.10366 26.9677C8.85573 28.2702 10.5214 28.7165 11.8239 27.9644L14.9927 26.1348C16.0846 25.5044 17.4494 26.2924 17.4494 27.5532V31.2132C17.4495 32.7172 18.6688 33.9365 20.1728 33.9365C21.6768 33.9365 22.8962 32.7172 22.8962 31.2132V20.0974C22.9012 19.9531 22.8949 19.8091 22.8773 19.6668C22.8548 19.4834 22.8133 19.3007 22.7521 19.1216C22.7486 19.1113 22.7449 19.101 22.7413 19.0908C22.7379 19.0811 22.7344 19.0713 22.7308 19.0615C22.7268 19.0504 22.7225 19.0393 22.7183 19.0282C22.7148 19.019 22.7113 19.0097 22.7077 19.0005C22.7023 18.9869 22.6967 18.9734 22.6911 18.9599C22.6888 18.9543 22.6866 18.9487 22.6842 18.9431C22.5537 18.6324 22.3651 18.3443 22.1232 18.0968C22.1155 18.0889 22.1077 18.0811 22.0999 18.0733C22.0921 18.0655 22.0843 18.0577 22.0764 18.05C21.8974 17.875 21.6972 17.7276 21.4824 17.6102L11.8245 12.0343Z" fill="#1C2024"/>
<path d="M50.6531 11.6154H58.3627C58.4427 11.7354 58.5127 11.9054 58.5727 12.1254C58.6527 12.3453 58.6927 12.5853 58.6927 12.8453C58.6927 13.2653 58.5927 13.6053 58.3927 13.8653C58.1927 14.1053 57.9127 14.2253 57.5527 14.2253H50.773L50.6531 11.6154ZM52.243 14.2253H44.5033C44.4433 14.0853 44.3733 13.9053 44.2933 13.6853C44.2133 13.4653 44.1733 13.2253 44.1733 12.9653C44.1733 12.5253 44.2733 12.1954 44.4733 11.9754C44.6733 11.7354 44.9633 11.6154 45.3433 11.6154H52.123L52.243 14.2253ZM52.963 13.4153V29.7946C52.843 29.8346 52.643 29.8846 52.363 29.9446C52.103 30.0046 51.833 30.0346 51.553 30.0346C50.973 30.0346 50.5431 29.9246 50.2631 29.7046C50.0031 29.4646 49.8731 29.0946 49.8731 28.5946V13.4153H52.963Z" fill="#1C2024"/>
<path d="M62.4489 23.2249H59.389V18.7551C59.389 18.2751 59.489 17.8851 59.689 17.5851C59.909 17.2651 60.229 16.9651 60.6489 16.6852C61.2089 16.3252 61.9389 16.0252 62.8388 15.7852C63.7588 15.5452 64.7588 15.4252 65.8387 15.4252C67.5786 15.4252 68.4486 15.9152 68.4486 16.8951C68.4486 17.1351 68.4086 17.3551 68.3286 17.5551C68.2686 17.7551 68.1786 17.9251 68.0586 18.0651C67.8586 18.0251 67.5986 17.9951 67.2786 17.9751C66.9787 17.9351 66.6687 17.9151 66.3487 17.9151C65.5287 17.9151 64.7888 18.0051 64.1288 18.1851C63.4688 18.3451 62.9088 18.5551 62.4489 18.8151V23.2249ZM62.4489 22.2049V29.7946C62.3289 29.8346 62.1389 29.8846 61.8789 29.9446C61.6389 30.0046 61.3689 30.0346 61.0689 30.0346C60.5089 30.0346 60.089 29.9346 59.809 29.7346C59.529 29.5146 59.389 29.1446 59.389 28.6246V21.9349L62.4489 22.2049Z" fill="#1C2024"/>
<path d="M69.9687 11.5254C69.9687 11.0254 70.1387 10.6054 70.4787 10.2654C70.8386 9.90546 71.2886 9.72546 71.8286 9.72546C72.3686 9.72546 72.8086 9.90546 73.1485 10.2654C73.4885 10.6054 73.6585 11.0254 73.6585 11.5254C73.6585 12.0254 73.4885 12.4453 73.1485 12.7853C72.8086 13.1253 72.3686 13.2953 71.8286 13.2953C71.2886 13.2953 70.8386 13.1253 70.4787 12.7853C70.1387 12.4453 69.9687 12.0254 69.9687 11.5254ZM73.3585 21.9349V29.7946C73.2185 29.8346 73.0185 29.8846 72.7586 29.9446C72.5186 30.0046 72.2486 30.0346 71.9486 30.0346C71.4086 30.0346 70.9986 29.9346 70.7187 29.7346C70.4387 29.5146 70.2987 29.1446 70.2987 28.6246V21.9349H73.3585ZM70.2987 23.4649V15.9052C70.4387 15.8652 70.6287 15.8252 70.8686 15.7852C71.1286 15.7252 71.4086 15.6952 71.7086 15.6952C72.2686 15.6952 72.6786 15.8052 72.9386 16.0252C73.2185 16.2252 73.3585 16.5852 73.3585 17.1051V23.4649H70.2987Z" fill="#1C2024"/>
<path d="M83.6474 17.9151C82.3674 17.9151 81.2975 18.3451 80.4375 19.205C79.5776 20.045 79.1476 21.265 79.1476 22.8649C79.1476 24.4648 79.5576 25.6848 80.3775 26.5247C81.2175 27.3647 82.3074 27.7847 83.6474 27.7847C84.4273 27.7847 85.0873 27.6847 85.6273 27.4847C86.1673 27.2647 86.6372 27.0247 87.0372 26.7647C87.2972 26.9247 87.4972 27.1147 87.6372 27.3347C87.7972 27.5347 87.8772 27.7847 87.8772 28.0847C87.8772 28.7046 87.4672 29.2246 86.6472 29.6446C85.8273 30.0446 84.7773 30.2446 83.4974 30.2446C82.0374 30.2446 80.7475 29.9746 79.6276 29.4346C78.5076 28.8946 77.6276 28.0847 76.9877 27.0047C76.3677 25.9047 76.0577 24.5248 76.0577 22.8649C76.0577 21.225 76.3877 19.855 77.0477 18.7551C77.7076 17.6351 78.5976 16.8052 79.7175 16.2652C80.8375 15.7052 82.0674 15.4252 83.4074 15.4252C84.6873 15.4252 85.7273 15.6452 86.5272 16.0852C87.3472 16.5252 87.7572 17.0551 87.7572 17.6751C87.7572 17.9351 87.6772 18.1751 87.5172 18.3951C87.3772 18.6151 87.1872 18.7851 86.9472 18.9051C86.5472 18.6451 86.0873 18.4151 85.5673 18.2151C85.0473 18.0151 84.4073 17.9151 83.6474 17.9151Z" fill="#1C2024"/>
<path d="M92.8703 22.2649L99.68 15.5752C100.3 15.5752 100.78 15.7152 101.12 15.9952C101.48 16.2552 101.66 16.6052 101.66 17.0451C101.66 17.4051 101.54 17.7251 101.3 18.0051C101.08 18.2651 100.74 18.5851 100.28 18.9651L94.8802 23.7048L92.8703 22.2649ZM95.1202 21.5449L102.44 28.2646C102.4 28.8246 102.23 29.2646 101.93 29.5846C101.65 29.9046 101.26 30.0646 100.76 30.0646C100.38 30.0646 100.03 29.9646 99.71 29.7646C99.41 29.5646 99.0901 29.2746 98.7501 28.8946L92.8703 22.7449L95.1202 21.5449ZM93.4403 22.1149V29.7946C93.3203 29.8346 93.1303 29.8846 92.8703 29.9446C92.6303 30.0046 92.3604 30.0346 92.0604 30.0346C91.5004 30.0346 91.0804 29.9346 90.8004 29.7346C90.5204 29.5146 90.3804 29.1446 90.3804 28.6246V21.8449L93.4403 22.1149ZM90.3804 23.3749V10.3854C90.5204 10.3454 90.7204 10.3054 90.9804 10.2654C91.2404 10.2054 91.5204 10.1754 91.8204 10.1754C92.3804 10.1754 92.7903 10.2754 93.0503 10.4754C93.3103 10.6754 93.4403 11.0354 93.4403 11.5554V23.6448L90.3804 23.3749Z" fill="#1C2024"/>
<path d="M107.778 22.2049V29.7946C107.658 29.8346 107.468 29.8846 107.208 29.9446C106.968 30.0046 106.698 30.0346 106.398 30.0346C105.838 30.0346 105.418 29.9346 105.138 29.7346C104.878 29.5146 104.748 29.1446 104.748 28.6246V21.9349L107.778 22.2049ZM104.748 23.4649V10.3854C104.868 10.3454 105.058 10.3054 105.318 10.2654C105.578 10.2054 105.848 10.1754 106.128 10.1754C106.708 10.1754 107.128 10.2754 107.388 10.4754C107.648 10.6754 107.778 11.0354 107.778 11.5554V23.7048L104.748 23.4649Z" fill="#1C2024"/>
<path d="M112.394 22.2949L120.943 21.095C120.863 20.155 120.523 19.375 119.924 18.7551C119.324 18.1151 118.474 17.7951 117.374 17.7951C116.234 17.7951 115.294 18.1951 114.554 18.9951C113.814 19.795 113.444 20.945 113.444 22.4449L113.474 23.5549C113.634 24.9748 114.144 26.0447 115.004 26.7647C115.864 27.4847 117.004 27.8447 118.424 27.8447C119.264 27.8447 120.034 27.7147 120.733 27.4547C121.433 27.1947 121.983 26.9047 122.383 26.5847C122.623 26.7447 122.823 26.9447 122.983 27.1847C123.143 27.4047 123.223 27.6547 123.223 27.9347C123.223 28.3746 122.993 28.7746 122.533 29.1346C122.093 29.4946 121.503 29.7746 120.763 29.9746C120.023 30.1746 119.184 30.2746 118.244 30.2746C116.684 30.2746 115.324 29.9946 114.164 29.4346C113.024 28.8546 112.134 28.0047 111.494 26.8847C110.854 25.7448 110.534 24.3548 110.534 22.7149C110.534 21.5349 110.704 20.495 111.044 19.595C111.404 18.6751 111.894 17.9151 112.514 17.3151C113.134 16.6952 113.864 16.2252 114.704 15.9052C115.544 15.5852 116.444 15.4252 117.404 15.4252C118.664 15.4252 119.774 15.6852 120.733 16.2052C121.693 16.7252 122.443 17.4551 122.983 18.3951C123.543 19.335 123.823 20.405 123.823 21.6049C123.823 22.1049 123.703 22.4749 123.463 22.7149C123.223 22.9349 122.883 23.0749 122.443 23.1349L112.514 24.5448L112.394 22.2949Z" fill="#1C2024"/>
</svg>
