<svg xmlns="http://www.w3.org/2000/svg" viewBox="0 0 29 28" fill="white">
  <path fill-rule="evenodd" clip-rule="evenodd" d="M16.2936 0.5295C14.931 -0.1765 13.3081 -0.1765 11.9454 0.5295L2.53237 5.40803C0.976569 6.21398 0 7.81634 0 9.56151V18.5142C0 20.261 0.976569 21.8618 2.53237 22.6677L11.9454 27.5463C12.3683 27.7652 12.815 27.9159 13.273 28V21.619C13.273 17.897 10.238 14.8811 6.49607 14.8811H3.38926V13.1963H6.49607C10.2396 13.1963 13.273 10.1787 13.273 6.4583V3.36936H14.9676V6.4583C14.9676 10.1802 18.0027 13.1963 21.7445 13.1963H28.239V9.56151C28.239 7.8148 27.2625 6.21398 25.7066 5.40803L16.2936 0.5295ZM28.239 14.8811H21.7445C18.001 14.8811 14.9676 17.8986 14.9676 21.619V28C15.424 27.9175 15.8724 27.7652 16.2952 27.5463L25.7082 22.6677C27.264 21.8618 28.2406 20.2594 28.2406 18.5142V14.8795L28.239 14.8811Z"/>
</svg>
