<?xml version="1.0" standalone="no"?>
<!DOCTYPE svg PUBLIC "-//W3C//DTD SVG 20010904//EN"
 "http://www.w3.org/TR/2001/REC-SVG-20010904/DTD/svg10.dtd">
<svg version="1.0" xmlns="http://www.w3.org/2000/svg"
 width="60.000000pt" height="64.000000pt" viewBox="0 0 60.000000 64.000000"
 preserveAspectRatio="xMidYMid meet">
<metadata>
Created by potrace 1.16, written by Peter Selinger 2001-2019
</metadata>
<g transform="translate(0.000000,64.000000) scale(0.100000,-0.100000)"
fill="#000000" stroke="none">
<path d="M125 603 c-4 -21 -7 -45 -8 -53 -2 -11 -18 -16 -60 -18 l-57 -3 0
-264 0 -265 300 0 300 0 0 320 0 320 -235 0 -234 0 -6 -37z m389 -80 c-4 -32
-16 -132 -28 -223 l-21 -165 -53 -3 -52 -3 6 70 7 71 -57 0 c-63 0 -62 2 -71
-82 l-6 -58 -110 0 c-96 0 -109 2 -109 17 0 22 29 261 36 291 4 19 10 22 58
22 l54 0 7 53 c4 28 9 55 12 60 2 4 78 7 169 7 l165 0 -7 -57z"/>
<path d="M195 505 l-6 -54 -57 -3 -57 -3 -17 -130 c-9 -72 -17 -138 -17 -147
-1 -16 10 -18 88 -18 97 0 101 2 101 73 0 56 14 67 85 67 40 0 67 -5 72 -12 7
-13 6 -52 -3 -101 -5 -25 -3 -27 30 -27 22 0 36 5 36 13 0 15 38 321 45 365
l6 32 -149 0 -150 0 -7 -55z m221 -77 c-4 -35 -11 -67 -15 -71 -4 -4 -39 -7
-77 -5 l-69 3 2 55 c4 81 3 80 89 80 l77 0 -7 -62z"/>
<path d="M280 458 c0 -7 -3 -30 -6 -50 l-7 -38 60 0 60 0 7 38 c10 63 11 62
-54 62 -41 0 -60 -4 -60 -12z"/>
<path d="M2 605 c0 -16 2 -22 5 -12 2 9 2 23 0 30 -3 6 -5 -1 -5 -18z"/>
<path d="M28 585 c-4 -35 -4 -35 34 -35 37 0 38 1 38 35 0 33 -2 35 -34 35
-31 0 -34 -3 -38 -35z"/>
</g>
</svg>
