<?xml version="1.0" standalone="no"?>
<!DOCTYPE svg PUBLIC "-//W3C//DTD SVG 20010904//EN"
 "http://www.w3.org/TR/2001/REC-SVG-20010904/DTD/svg10.dtd">
<svg version="1.0" xmlns="http://www.w3.org/2000/svg"
 width="64.000000pt" height="64.000000pt" viewBox="0 0 64.000000 64.000000"
 preserveAspectRatio="xMidYMid meet">
<metadata>
Created by potrace 1.16, written by Peter Selinger 2001-2019
</metadata>
<g transform="translate(0.000000,64.000000) scale(0.100000,-0.100000)"
fill="#000000" stroke="none">
<path d="M0 320 l1 -320 319 0 319 1 1 319 0 319 -320 1 -320 0 0 -320z m304
245 c20 -9 34 -19 32 -24 -3 -5 7 -11 23 -14 15 -3 51 -20 80 -38 39 -25 51
-38 49 -53 -2 -17 -10 -21 -42 -21 -42 0 -56 -16 -36 -41 10 -12 9 -18 -5 -34
-22 -25 -46 -14 -68 32 l-16 32 -7 -28 c-5 -20 -1 -39 11 -63 17 -32 18 -35 2
-51 -13 -13 -21 -14 -35 -6 -27 17 -62 74 -62 101 0 14 -4 21 -10 18 -20 -13
-11 -89 16 -128 20 -31 23 -41 14 -53 -21 -24 -45 -16 -73 28 -34 52 -43 98
-30 154 11 48 8 52 -25 28 -30 -21 -36 -13 -28 30 11 60 68 113 146 137 14 4
26 8 26 8 1 1 18 -6 38 -14z m293 -47 c-3 -7 -5 -2 -5 12 0 14 2 19 5 13 2 -7
2 -19 0 -25z"/>
</g>
</svg>
