<svg width="230" height="230" viewBox="0 0 230 230" fill="none" xmlns="http://www.w3.org/2000/svg">
<rect x="2.5" y="2.5" width="225" height="225" rx="47.5" fill="black" stroke="white" stroke-width="5"/>
<g filter="url(#filter0_d_4047_6)">
<path d="M158.389 44C143.163 44 130.778 56.3856 130.778 71.6111V83.4444H99.2222V71.6111C99.2222 56.3856 86.8367 44 71.6111 44C56.3856 44 44 56.3856 44 71.6111C44 86.8367 56.3856 99.2222 71.6111 99.2222H83.4444V130.778H71.6111C56.3856 130.778 44 143.163 44 158.389C44 173.614 56.3856 186 71.6111 186C86.8367 186 99.2222 173.614 99.2222 158.389V146.556H130.778V158.389C130.778 173.614 143.163 186 158.389 186C173.614 186 186 173.614 186 158.389C186 143.163 173.614 130.778 158.389 130.778H146.556V99.2222H158.389C173.614 99.2222 186 86.8367 186 71.6111C186 56.3856 173.614 44 158.389 44ZM146.556 83.4444V71.6111C146.556 65.0633 151.841 59.7778 158.389 59.7778C164.937 59.7778 170.222 65.0633 170.222 71.6111C170.222 78.1589 164.937 83.4444 158.389 83.4444H146.556ZM71.6111 83.4444C65.0633 83.4444 59.7778 78.1589 59.7778 71.6111C59.7778 65.0633 65.0633 59.7778 71.6111 59.7778C78.1589 59.7778 83.4444 65.0633 83.4444 71.6111V83.4444H71.6111ZM99.2222 130.778V99.2222H130.778V130.778H99.2222ZM158.389 170.222C151.841 170.222 146.556 164.937 146.556 158.389V146.556H158.389C164.937 146.556 170.222 151.841 170.222 158.389C170.222 164.937 164.937 170.222 158.389 170.222ZM71.6111 170.222C65.0633 170.222 59.7778 164.937 59.7778 158.389C59.7778 151.841 65.0633 146.556 71.6111 146.556H83.4444V158.389C83.4444 164.937 78.1589 170.222 71.6111 170.222Z" fill="white"/>
</g>
<defs>
<filter id="filter0_d_4047_6" x="43.7746" y="44" width="142.451" height="142.451" filterUnits="userSpaceOnUse" color-interpolation-filters="sRGB">
<feFlood flood-opacity="0" result="BackgroundImageFix"/>
<feColorMatrix in="SourceAlpha" type="matrix" values="0 0 0 0 0 0 0 0 0 0 0 0 0 0 0 0 0 0 127 0" result="hardAlpha"/>
<feOffset dy="0.225352"/>
<feGaussianBlur stdDeviation="0.112676"/>
<feComposite in2="hardAlpha" operator="out"/>
<feColorMatrix type="matrix" values="0 0 0 0 0 0 0 0 0 0 0 0 0 0 0 0 0 0 0.25 0"/>
<feBlend mode="normal" in2="BackgroundImageFix" result="effect1_dropShadow_4047_6"/>
<feBlend mode="normal" in="SourceGraphic" in2="effect1_dropShadow_4047_6" result="shape"/>
</filter>
</defs>
</svg>
