<?xml version="1.0" standalone="no"?>
<!DOCTYPE svg PUBLIC "-//W3C//DTD SVG 20010904//EN"
 "http://www.w3.org/TR/2001/REC-SVG-20010904/DTD/svg10.dtd">
<svg version="1.0" xmlns="http://www.w3.org/2000/svg"
 width="64.000000pt" height="64.000000pt" viewBox="0 0 64.000000 64.000000"
 preserveAspectRatio="xMidYMid meet">
<metadata>
Created by potrace 1.16, written by Peter Selinger 2001-2019
</metadata>
<g transform="translate(0.000000,64.000000) scale(0.100000,-0.100000)"
fill="#000000" stroke="none">
<path d="M0 320 l0 -320 320 0 320 0 0 320 0 320 -320 0 -320 0 0 -320z m389
191 c34 -22 -51 -128 -119 -149 -41 -13 -137 -19 -146 -9 -11 11 15 84 40 114
13 15 39 33 57 39 40 15 148 18 168 5z m65 -129 c8 -15 26 -33 40 -40 32 -15
33 -26 1 -40 -13 -6 -31 -25 -40 -42 -19 -37 -26 -37 -47 0 -9 17 -29 35 -43
42 -32 14 -31 19 5 40 17 9 35 29 42 43 15 32 24 32 42 -3z m-155 -111 c20
-11 43 -27 52 -37 20 -22 49 -79 49 -94 0 -6 -31 -10 -82 -10 -110 0 -154 24
-181 94 -26 72 -20 80 59 72 37 -4 83 -15 103 -25z"/>
</g>
</svg>
