<?xml version="1.0" standalone="no"?>
<!DOCTYPE svg PUBLIC "-//W3C//DTD SVG 20010904//EN"
 "http://www.w3.org/TR/2001/REC-SVG-20010904/DTD/svg10.dtd">
<svg version="1.0" xmlns="http://www.w3.org/2000/svg"
 width="64.000000pt" height="64.000000pt" viewBox="0 0 64.000000 64.000000"
 preserveAspectRatio="xMidYMid meet">
<metadata>
Created by potrace 1.16, written by Peter Selinger 2001-2019
</metadata>
<g transform="translate(0.000000,64.000000) scale(0.100000,-0.100000)"
fill="#000000" stroke="none">
<path d="M0 320 l0 -320 320 0 320 0 0 320 0 320 -320 0 -320 0 0 -320z m480
210 c65 -33 91 -117 54 -179 -15 -25 -15 -30 0 -59 9 -17 16 -52 16 -78 0 -41
-5 -51 -39 -85 -34 -34 -44 -39 -86 -39 -26 0 -60 7 -76 17 -27 16 -31 16 -58
0 -64 -37 -147 -12 -182 55 -24 47 -24 64 2 113 11 22 21 61 22 87 0 26 4 45
9 42 4 -3 8 -9 8 -15 0 -5 15 -23 33 -39 20 -18 28 -33 22 -37 -25 -18 -55
-68 -55 -89 0 -61 86 -86 130 -39 30 32 50 32 80 0 28 -29 74 -33 102 -8 27
24 23 75 -7 103 -14 13 -25 31 -25 40 0 9 11 27 25 40 33 31 35 92 3 114 -34
24 -63 19 -103 -15 l-36 -32 -38 38 c-32 32 -36 41 -26 52 18 18 38 16 31 -2
-4 -12 0 -14 22 -9 15 4 34 12 42 19 34 29 81 30 130 5z m-356 -165 c3 -8 1
-15 -4 -15 -6 0 -10 7 -10 15 0 8 2 15 4 15 2 0 6 -7 10 -15z"/>
</g>
</svg>
