<svg xmlns="http://www.w3.org/2000/svg" viewBox="0 0 175 220">
  <path
        d="M168.05 204.234L142.696 180.209C124.724 163.163 112.29 141.118 106.987 116.943L90.5427 42.1845C90.1569 40.5068 88.7635 39.668 87.3709 39.668C85.9784 39.668 84.6021 40.5068 84.1999 42.1845L67.755 116.96C62.4356 141.136 50.0182 163.18 32.0466 180.226L6.69163 204.25C4.32564 206.784 3 210.122 3 213.595V216.632L67.3019 205.525C73.9301 204.385 80.6593 203.797 87.3546 203.797C94.0499 203.797 100.779 204.385 107.407 205.525L171.708 216.632V213.595C171.708 210.122 170.383 206.784 168.017 204.25L168.05 204.234Z"
        fill="#fff"
    />
</svg>
