<svg xmlns="http://www.w3.org/2000/svg" viewBox="0 0 50 50">
  <path
        fill-rule="evenodd"
        clip-rule="evenodd"
        d="M10 0C4.47715 0 0 4.47715 0 10V40C0 45.5228 4.47715 50 10 50H40C45.5228 50 50 45.5228 50 40V10C50 4.47715 45.5228 0 40 0H10ZM37.7142 14.881L40 11.6667H10L12.286 14.881H23.2669L23.2429 40.6822L24.8753 42.8251L26.5078 40.6822L26.5318 14.881H37.7142ZM19.435 35.2381L22.1557 38.4524V15.9524H13.0483L14.9534 18.631L19.4466 18.631L19.435 35.2381ZM27.5971 38.4524L30.3072 35.2381V18.631H35.0472L36.9522 15.9524H27.5971V38.4524Z"
        fill="white"
    />
</svg>
