<svg width="3000" height="3000" viewBox="0 0 3000 3000" fill="none" xmlns="http://www.w3.org/2000/svg">
<rect width="3000" height="3000" rx="300" fill="white" style="fill:white;fill-opacity:1;"/>
<path d="M2686.27 95.2109C2703.44 95.2109 2717.4 109.134 2717.16 126.308C2712.58 448.816 2624.48 839.937 1657.13 848.274C1639.95 848.423 1625.43 862.385 1625.37 879.56C1624.88 1034.93 1618.62 1107.91 1545.84 1142.19L1686.52 1412.59C1791.76 1412.62 1926.5 1435.58 2009.73 1521.33C2034.9 1508.74 2103.47 1483.56 2176.33 1483.56C2267.4 1483.56 2387.36 1599.62 2387.36 1792.61V2409.87C2396.24 2442.82 2427.34 2517.38 2480.66 2552.04L2436.23 2602.02C2335.16 2583.51 2133.01 2494.5 2133.01 2286.58V1737.91C2132.03 1713.62 2119.17 1661.32 2077.24 1626.87C2098.64 1650.58 2118.93 1709.64 2097.47 1830.09C2069.93 1984.7 1883.85 2055.93 1794.25 2072.22L1719.84 2228.83L1862.01 2371V2437.64L1492.15 2807.49L1541.02 2856.36L1492.15 2905.23H1257.8V2838.59L1670.97 2425.42L1447.72 2202.17L1382.19 2267.7L1432.17 2317.68V2425.42L1071.76 2785.84L1105.63 2819.71L1056.76 2868.58H835.737V2819.71L1270.01 2385.44L1118.96 2234.38C1101.19 2219.57 1065.65 2173.52 1065.65 2107.77C1065.65 2042.01 1091.75 1992.25 1104.8 1975.59L1287.78 1792.61L963.465 1636.84H850.176L781.147 1468.01H713.701L604.715 1725.69L642.479 1761.23H747.993L642.479 1932.28L479.208 1761.23L616.451 1386.93L540.296 1214.78L417.01 1537.99H522.525L417.01 1687.93L280.396 1537.99L458.105 1043.73H653.585L732.444 1214.78C759.1 1155.17 812.413 1010.63 812.413 909.34C812.413 808.046 733.925 690.906 694.681 644.998L624.859 793.829L674.688 846.031L550.292 970.428L444.777 864.913V290.691C458.028 288.918 473.338 287.376 490.315 286.233V172.959C518.452 166.665 590.499 154.077 653.585 154.077C732.444 154.077 1031.22 176.29 1197.82 410.644C1303.57 559.404 1362.24 673.248 1388.25 735.198C1391.24 655.092 1391.36 557.672 1390.85 439.572C1390.02 249.416 1543.69 95.2109 1733.84 95.2109H2686.27Z" fill="black" style="fill:black;fill-opacity:1;"/>
<path d="M604.712 553.919C604.712 580.296 583.329 601.679 556.953 601.679C530.576 601.679 509.193 580.296 509.193 553.919C509.193 527.543 530.576 506.16 556.953 506.16C583.329 506.16 604.712 527.543 604.712 553.919Z" fill="black" style="fill:black;fill-opacity:1;"/>
<path d="M517.001 810.334C520.997 806.355 527.072 805.321 532.093 807.891C533.825 808.778 535.551 809.677 537.271 810.586C544.717 814.519 554.692 820.079 562.042 825.424C568.204 829.905 577.396 837.342 580.186 848.678C583.66 862.797 575.68 873.348 569.975 879.053C560.679 888.349 548.092 890.92 536.789 887.275C526.315 883.896 518.429 875.788 514.244 866.371C512.206 861.788 507.942 852.98 504.017 844.991C502.915 842.745 500.272 839.081 498.525 835.678C496.931 832.573 498.227 829.146 500.683 826.667C505.826 821.477 512.252 815.062 517.001 810.334Z" fill="white" style="fill:white;fill-opacity:1;"/>
<path fill-rule="evenodd" clip-rule="evenodd" d="M556.951 483.952C595.595 483.952 626.923 515.28 626.923 553.925C626.923 592.57 595.595 623.898 556.951 623.898C518.306 623.898 486.978 592.57 486.978 553.925C486.978 515.28 518.306 483.952 556.951 483.952ZM556.951 528.379C542.842 528.379 531.405 539.816 531.405 553.925C531.405 568.033 542.842 579.471 556.951 579.471C571.059 579.471 582.496 568.033 582.496 553.925C582.496 539.816 571.059 528.379 556.951 528.379Z" fill="white" style="fill:white;fill-opacity:1;"/>
<path fill-rule="evenodd" clip-rule="evenodd" d="M2686.26 73C2715.61 73 2739.79 96.8428 2739.36 126.625C2737.06 289.258 2713.8 475.478 2563.64 621.056C2414.02 766.112 2143.09 866.304 1657.31 870.491C1651.72 870.539 1647.6 875.203 1647.58 879.632C1647.35 952.4 1645.92 1009.82 1636.14 1053.78C1627.5 1092.65 1611.91 1122.91 1583.98 1144.81C1578.58 1149.04 1576.56 1156.49 1579.74 1162.58L1695.72 1384.59C1697.98 1388.92 1702.41 1391.65 1707.28 1391.79C1804.3 1394.53 1924.14 1417.11 2007.74 1490.36C2011.68 1493.82 2017.22 1494.81 2022.1 1492.89C2056.97 1479.19 2115.02 1462.46 2176.32 1462.46C2230.38 1462.46 2288.7 1496.31 2332.64 1552.75C2377.07 1609.81 2408.46 1691.69 2408.46 1792.61V2405.1C2408.46 2406.34 2408.63 2407.58 2408.98 2408.78C2413.5 2423.87 2422.39 2446.73 2435.64 2469.81C2449.25 2493.53 2466.6 2515.96 2487.12 2530.88C2490.26 2533.16 2492.45 2536.56 2492.97 2540.41L2495.61 2560C2496.12 2563.85 2494.94 2567.73 2492.36 2570.63L2454.32 2613.43C2452.8 2615.14 2450.86 2616.43 2448.69 2617.18L2435.72 2621.64C2433.56 2622.39 2431.25 2622.57 2429.01 2622.14C2375.81 2611.82 2298.53 2583.83 2233.53 2531.81C2166.6 2478.25 2111.9 2398.4 2111.9 2286.59V1951.03C2111.9 1935.68 2079.72 1928.23 2070.38 1940.41C2045.38 1973 2013.63 1999.59 1980.51 2020.8C1923.98 2057 1861.4 2078.96 1815.18 2089.46C1811.13 2090.38 1807.7 2093.07 1805.92 2096.83L1749.32 2215.94C1746.9 2221.04 1747.95 2227.1 1751.93 2231.09L1875.05 2354.2C1876.29 2355.44 1877.27 2356.91 1877.94 2358.53L1882.09 2368.55C1882.76 2370.17 1883.1 2371.9 1883.1 2373.65V2434.99C1883.1 2436.74 1882.76 2438.47 1882.09 2440.09L1877.94 2450.11C1877.27 2451.73 1876.29 2453.2 1875.05 2454.44L1531.41 2798.07C1526.21 2803.28 1526.21 2811.72 1531.41 2816.92L1552.03 2837.54C1554.53 2840.04 1555.94 2843.43 1555.94 2846.97V2865.77C1555.94 2869.3 1554.53 2872.69 1552.03 2875.19L1508.94 2918.28C1507.7 2919.52 1506.23 2920.5 1504.62 2921.17L1494.59 2925.33C1492.98 2926 1491.24 2926.34 1489.49 2926.34H1263.31C1259.78 2926.34 1256.39 2924.94 1253.89 2922.44L1240.59 2909.14C1238.09 2906.64 1236.69 2903.25 1236.69 2899.72V2841.25C1236.69 2839.5 1237.03 2837.76 1237.7 2836.15L1241.85 2826.12C1242.52 2824.51 1243.5 2823.04 1244.74 2821.8L1631.69 2434.85C1636.9 2429.64 1636.9 2421.2 1631.69 2416L1457.14 2241.45C1451.94 2236.24 1443.5 2236.24 1438.29 2241.45L1421.46 2258.28C1416.25 2263.49 1416.25 2271.93 1421.46 2277.13L1445.21 2300.89C1446.45 2302.13 1447.43 2303.6 1448.1 2305.21L1452.26 2315.24C1452.93 2316.85 1453.27 2318.59 1453.27 2320.34V2422.77C1453.27 2424.52 1452.93 2426.25 1452.26 2427.87L1448.1 2437.9C1447.43 2439.51 1446.45 2440.98 1445.21 2442.22L1111.02 2776.41C1105.82 2781.62 1105.82 2790.06 1111.02 2795.26L1116.65 2800.89C1119.15 2803.39 1120.55 2806.78 1120.55 2810.31V2829.12C1120.55 2832.65 1119.15 2836.04 1116.65 2838.54L1073.55 2881.63C1072.32 2882.87 1070.85 2883.85 1069.23 2884.52L1059.21 2888.67C1057.59 2889.34 1055.86 2889.69 1054.11 2889.69H841.252C837.717 2889.69 834.327 2888.28 831.828 2885.78L818.532 2872.49C816.033 2869.99 814.629 2866.6 814.629 2863.06V2822.37C814.629 2820.62 814.973 2818.88 815.643 2817.27L819.794 2807.24C820.464 2805.62 821.446 2804.15 822.684 2802.92L1230.74 2394.86C1235.94 2389.66 1235.94 2381.22 1230.74 2376.01L1104.64 2249.92C1082.83 2231.27 1044.54 2179.99 1044.54 2107.77C1044.54 2036.94 1072.45 1982.67 1088.18 1962.58L1089.87 1960.67L1238.5 1812.04C1245 1805.54 1243.13 1794.57 1234.85 1790.6L961.39 1659.26C959.59 1658.39 957.618 1657.94 955.62 1657.94H854.23C851.584 1657.94 848.997 1657.15 846.8 1655.68L834.008 1647.09C831.811 1645.61 830.103 1643.52 829.101 1641.07L770.356 1497.4C768.308 1492.39 763.432 1489.12 758.02 1489.12H736.515C731.16 1489.12 726.325 1492.32 724.24 1497.25L633.478 1711.85C631.306 1716.98 632.559 1722.93 636.618 1726.75L646.993 1736.51C649.465 1738.84 652.733 1740.13 656.128 1740.13H740.163C744.994 1740.13 749.447 1742.75 751.801 1746.97L762.134 1765.48C764.488 1769.7 764.375 1774.86 761.839 1778.97L663.87 1937.79C661.702 1941.3 658.027 1943.61 653.92 1944.04L633.72 1946.17C629.613 1946.6 625.538 1945.1 622.686 1942.11L466.568 1778.56C464.849 1776.76 463.668 1774.51 463.161 1772.08L460.167 1757.7C459.66 1755.26 459.845 1752.73 460.702 1750.39L493.13 1661.95C498.495 1647.32 478.686 1636.95 469.717 1649.69L437.944 1694.84C435.617 1698.15 431.916 1700.22 427.882 1700.48L407.788 1701.74C403.753 1702 399.821 1700.4 397.098 1697.42L267.286 1554.94C265.654 1553.15 264.541 1550.95 264.067 1548.57L261.257 1534.48C260.784 1532.1 260.966 1529.64 261.786 1527.36L436.816 1040.56C437.744 1037.98 439.447 1035.75 441.691 1034.17L454.65 1025.06C456.895 1023.48 459.573 1022.63 462.317 1022.63H649.679C652.226 1022.63 654.72 1023.36 656.865 1024.74L669.458 1032.8C671.603 1034.17 673.31 1036.13 674.376 1038.44L718.17 1133.43C723.102 1144.13 738.371 1143.6 742.324 1132.5C749.052 1113.61 755.865 1093.04 762.186 1071.7C778.661 1016.08 791.304 956.934 791.304 909.343C791.304 863.587 773.385 812.507 749.491 766.054C737.635 743.004 724.587 721.633 712.176 703.298C706.503 694.919 694.006 696.111 689.709 705.271L653.972 781.451C651.635 786.431 652.599 792.335 656.397 796.314L686.199 827.535C688.602 830.053 689.925 833.412 689.885 836.893L689.668 855.527C689.628 859.008 688.227 862.335 685.766 864.796L569.113 981.449C566.613 983.949 563.223 985.353 559.688 985.353H540.885C537.35 985.353 533.96 983.949 531.46 981.449L431.724 881.713C430.486 880.475 429.504 879.006 428.835 877.389L424.683 867.365C424.013 865.748 423.669 864.015 423.669 862.265V295.702C423.669 292.473 424.841 289.354 426.967 286.925L438.675 273.546C440.801 271.116 443.736 269.535 446.94 269.135C450.225 268.725 453.614 268.33 457.103 267.951C463.953 267.208 469.207 261.469 469.207 254.579V177.641C469.207 174.612 470.239 171.673 472.132 169.309L482.776 156.021C484.67 153.656 487.282 152.008 490.245 151.378C521.813 144.665 591.539 132.977 653.58 132.977C694.564 132.977 791.331 138.701 899.418 174.445C1007.58 210.213 1128.33 276.484 1215.01 398.419C1269.19 474.626 1311.25 541.96 1343.04 598.156C1349.85 610.194 1368.63 605.555 1368.71 591.725C1368.94 551.801 1368.89 508.72 1368.72 462.235C1367.93 247.548 1541.29 73 1756.05 73H2686.26ZM1756.05 117.427C1565.96 117.427 1412.45 271.908 1413.15 462.07C1413.62 590.427 1413.14 694.144 1408.56 777.298C1404.01 860.175 1395.32 924.424 1378.61 973.107C1361.63 1022.56 1335.85 1057.32 1296.86 1078.84C1273.82 1091.56 1247.17 1099.05 1216.9 1102.99C1209.13 1104 1202.39 1097.82 1202.39 1089.99V1071.98C1202.39 1065.15 1207.57 1059.45 1214.34 1058.5C1239.1 1055.02 1259.05 1048.97 1275.39 1039.95C1302.37 1025.06 1322.2 1000.58 1336.59 958.677C1339.65 949.765 1342.43 940.131 1344.97 929.719C1346.24 924.497 1344.13 919.055 1339.71 915.997C1312.72 897.322 1279.24 876.244 1253.82 865.848C1235.54 859.818 1200.42 858.003 1160.63 859.104C1121.64 860.183 1081.79 863.895 1057.15 866.974L1049.44 867.938C1042.13 868.851 1035.47 863.67 1034.56 856.366L1032.63 840.937C1031.72 833.633 1036.9 826.972 1044.2 826.058L1051.92 825.094C1077.63 821.879 1118.86 818.037 1159.47 816.913C1177.89 816.404 1197.02 816.417 1214.87 817.485C1224.13 818.039 1231.58 809.561 1229.09 800.622C1201.09 699.93 1129.13 535.881 991.478 427.21C920.345 371.052 828.437 338.672 736.948 321.571C645.63 304.503 556.277 302.945 491.726 307.291C486.958 307.612 482.332 307.966 477.859 308.347C471.047 308.928 465.875 314.669 465.875 321.506V850.653C465.875 854.188 467.279 857.578 469.778 860.077L540.862 931.161C546.067 936.366 554.506 936.366 559.711 931.161L635.973 854.897C641.092 849.777 641.188 841.507 636.189 836.27L584.076 781.676C578.994 776.351 579.19 767.915 584.514 762.832L599.685 748.352C602.843 745.337 607.848 745.453 610.863 748.612C614.701 752.633 621.38 751.543 623.741 746.511L672.485 642.612C674.408 638.513 678.28 635.671 682.767 635.065L703.518 632.261C708.004 631.655 712.495 633.349 715.372 636.845C735.727 661.578 763.545 701.102 787.024 746.75C812.186 795.667 833.51 853.805 833.51 909.343C833.51 963.046 819.497 1026.82 802.652 1083.69C791.073 1122.78 777.909 1159.4 766.367 1188.44C762.848 1197.29 769.314 1207.01 778.841 1207.01H846.146C848.771 1207.01 851.336 1207.78 853.522 1209.23L866.273 1217.7C868.459 1219.16 870.167 1221.22 871.184 1223.64L995.923 1520.32C998.776 1527.1 995.588 1534.91 988.802 1537.77L974.468 1543.79C967.683 1546.65 959.869 1543.46 957.016 1536.67L839.582 1257.37C837.503 1252.43 832.661 1249.21 827.296 1249.21H698.73C693.138 1249.21 688.141 1252.7 686.216 1257.95L506.392 1748.37C504.643 1753.14 505.757 1758.49 509.265 1762.17L626.943 1885.45C632.972 1891.76 643.343 1890.67 647.927 1883.24L697.637 1802.66C703.115 1793.78 696.728 1782.34 686.294 1782.34H645.019C643.337 1782.34 641.67 1782.02 640.106 1781.4L630.377 1777.54C628.813 1776.92 627.381 1776.01 626.156 1774.86L593.291 1743.93C591.309 1742.06 589.946 1739.63 589.384 1736.97L586.136 1721.57C585.574 1718.9 585.841 1716.13 586.902 1713.62L725.087 1386.91C727.184 1381.95 732.058 1378.74 737.442 1378.77L758.628 1378.9C764.012 1378.93 768.848 1382.2 770.885 1387.18L860.953 1607.45C863.002 1612.46 867.877 1615.74 873.29 1615.74H1088.36C1093.93 1615.74 1098.91 1612.27 1100.85 1607.05L1180.75 1392.28C1183.31 1385.39 1190.98 1381.87 1197.88 1384.44L1212.46 1389.86C1219.36 1392.43 1222.87 1400.1 1220.3 1407L1133.53 1640.28C1132.58 1642.83 1130.87 1645.03 1128.64 1646.58L1115.36 1655.81C1113.36 1657.2 1110.99 1657.94 1108.55 1657.94C1095.86 1657.94 1091.94 1675.14 1103.39 1680.63L1402.08 1824.1C1407.25 1826.58 1413.43 1825.48 1417.42 1821.36L1517.94 1717.64C1523.06 1712.36 1531.5 1712.22 1536.79 1717.35L1547.96 1728.17C1553.24 1733.29 1553.37 1741.73 1548.25 1747.01L1373.28 1927.56C1372.03 1928.85 1371.05 1930.36 1370.43 1932.04C1362.28 1953.86 1349.98 1995.08 1349.98 2026.69C1349.98 2040.76 1356.71 2059.3 1367.33 2078.47C1377.44 2096.74 1389.62 2112.98 1397.65 2122.26L1681.98 2406.6C1684.48 2409.1 1685.89 2412.49 1685.89 2416.02V2434.82C1685.89 2438.36 1684.48 2441.75 1681.98 2444.25L1282.8 2843.43C1280.3 2845.93 1278.89 2849.32 1278.89 2852.86V2870.81C1278.89 2878.17 1284.86 2884.13 1292.22 2884.13H1477.88C1481.42 2884.13 1484.81 2882.73 1487.31 2880.23L1501.74 2865.79C1506.95 2860.59 1506.95 2852.15 1501.74 2846.94L1453.95 2799.15C1448.75 2793.95 1448.75 2785.51 1453.95 2780.3L1465.49 2768.77C1470.4 2763.86 1478.35 2763.86 1483.26 2768.77C1488.17 2773.67 1496.12 2773.67 1501.03 2768.77L1836.99 2432.8C1839.49 2430.3 1840.9 2426.91 1840.9 2423.38V2385.26C1840.9 2381.73 1839.49 2378.34 1836.99 2375.84L1707.9 2246.75C1705.96 2244.8 1704.66 2242.3 1704.19 2239.59L1701.49 2223.94C1701.03 2221.23 1701.41 2218.44 1702.59 2215.96L1773.81 2066.07C1774.72 2064.17 1776.07 2062.5 1777.74 2061.21L1787.92 2053.42C1789.6 2052.13 1791.55 2051.27 1793.62 2050.87C1836.29 2042.69 1900.72 2021.78 1957.74 1985.26C2016.24 1947.79 2064.35 1895.68 2076.69 1826.4C2096.94 1712.74 2077.96 1661.51 2063.37 1643.14C2062.82 1642.45 2062.2 1641.85 2061.5 1641.31C2060.65 1640.64 2059.79 1639.99 2058.92 1639.35C2053.47 1635.34 2051.07 1628.15 2053.8 1621.97L2061.13 1605.31C2063.85 1599.12 2070.89 1595.85 2076.72 1599.28C2082.05 1602.41 2087.12 1606.56 2091.79 1611.53C2138.85 1650.96 2152.96 1709.09 2154.09 1737.06L2154.11 1737.91V2286.59C2154.11 2382.69 2200.48 2451.31 2259.9 2498.86C2312.3 2540.79 2374.21 2565.69 2420.9 2577.14C2425.6 2578.3 2430.51 2576.68 2433.72 2573.07L2440.89 2565.01C2445.8 2559.48 2445.24 2551.04 2440.04 2545.8C2423.36 2528.98 2409.75 2509.49 2399.04 2490.82C2382.55 2462.1 2371.88 2433.53 2366.98 2415.37L2366.25 2409.87V1792.61C2366.25 1700.54 2337.66 1627.9 2299.34 1578.68C2260.54 1528.85 2213.34 1504.67 2176.32 1504.67C2111.09 1504.67 2048.97 1526.26 2023.06 1538.32C2020.49 1539.52 2017.66 1539.95 2014.86 1539.47L1998.87 1536.76C1996.08 1536.28 1993.52 1534.92 1991.51 1532.92C1914.17 1456.03 1788.87 1433.72 1686.51 1433.7C1644.6 1433.69 1607.71 1437.43 1581.38 1442.14L1573.73 1443.51C1566.49 1444.81 1559.56 1439.98 1558.26 1432.74L1555.52 1417.43C1554.23 1410.19 1559.05 1403.26 1566.29 1401.96L1573.95 1400.59C1590.14 1397.7 1609.59 1395.19 1631.34 1393.55C1641.04 1392.81 1647.02 1382.41 1642.53 1373.78L1541.81 1180.19C1538.75 1174.31 1531.85 1171.6 1525.49 1173.5C1496.05 1182.27 1460.53 1187.19 1418.29 1190.15C1364.91 1193.9 1298.29 1194.61 1215.74 1194.75C1208.38 1194.76 1202.39 1188.79 1202.39 1181.43V1163.66C1202.39 1156.3 1208.36 1150.34 1215.72 1150.32C1298.16 1150.19 1363.32 1149.48 1415.18 1145.84C1479.98 1141.29 1520.27 1132.31 1546.3 1116.85C1570.43 1102.52 1584.53 1081.21 1592.77 1044.14C1601.32 1005.69 1602.92 953.231 1603.16 879.493C1603.25 849.572 1628.18 826.311 1656.93 826.064C2138.51 821.913 2395.31 722.374 2532.72 589.159C2669.59 456.465 2692.67 285.871 2694.94 125.996C2695 121.431 2691.26 117.427 2686.26 117.427H1756.05ZM1121.39 1988.84C1120.94 1989.29 1120.54 1989.75 1120.16 1990.26C1109.23 2005.31 1086.75 2049.4 1086.75 2107.77C1086.75 2164.32 1116.62 2204.06 1131.11 2217.01L1132.47 2218.17L1133.88 2219.46L1281.03 2366.61C1283.53 2369.11 1284.93 2372.5 1284.93 2376.04V2394.84C1284.93 2398.38 1283.53 2401.76 1281.03 2404.26L860.738 2824.55C858.239 2827.05 856.834 2830.49 856.834 2834.03C856.834 2841.39 862.802 2847.48 870.163 2847.48H1042.49C1046.03 2847.48 1049.42 2846.08 1051.92 2843.58L1066.36 2829.14C1071.56 2823.93 1071.56 2815.5 1066.36 2810.29L1017.46 2761.39C1012.25 2756.18 1012.25 2747.74 1017.46 2742.54L1028.45 2731.54C1033.66 2726.34 1042.09 2726.34 1047.3 2731.54L1062.33 2746.57C1067.53 2751.77 1075.97 2751.77 1081.18 2746.57L1407.16 2420.58C1409.66 2418.08 1411.06 2414.69 1411.06 2411.16V2331.95C1411.06 2328.41 1409.66 2325.02 1407.16 2322.53L1371.17 2286.53C1368.67 2284.03 1367.26 2280.64 1367.26 2277.11V2258.3C1367.26 2254.77 1368.67 2251.38 1371.17 2248.88L1408.45 2211.6C1413.65 2206.4 1413.65 2197.96 1408.45 2192.75L1367.26 2151.57L1366.29 2150.52C1356.54 2139.35 1342.31 2120.42 1330.41 2098.92C1318.81 2077.97 1307.77 2051.71 1307.77 2026.69C1307.77 1984.24 1324.68 1932.56 1333.3 1911.04C1333.61 1910.25 1334 1909.52 1334.46 1908.81L1337.45 1904.23C1337.92 1903.51 1338.45 1902.85 1339.04 1902.24L1366.91 1873.49C1373.24 1866.95 1371.31 1856.14 1363.1 1852.2L1300.64 1822.2C1295.54 1819.75 1289.45 1820.78 1285.44 1824.79L1121.39 1988.84ZM307.264 1525.62C305.593 1530.26 306.628 1535.45 309.954 1539.1L403.695 1641.99C409.438 1648.29 419.54 1647.65 424.447 1640.68L467.087 1580.09C473.302 1571.26 466.985 1559.09 456.188 1559.09H424.008C419.623 1559.09 415.519 1556.93 413.032 1553.32L401.261 1536.23C398.773 1532.62 398.221 1528.02 399.784 1523.92L517.392 1215.6C519.317 1210.55 524.098 1207.17 529.498 1207.03L550.664 1206.48C556.064 1206.34 561.015 1209.47 563.2 1214.41L601.267 1300.46C606.116 1311.43 621.843 1310.91 625.97 1299.66L653.427 1224.78C654.367 1222.22 656.071 1220.01 658.308 1218.44L671.245 1209.41C673.483 1207.84 676.147 1207.01 678.876 1207.01H684.796C694.52 1207.01 700.971 1196.93 696.899 1188.1L643.644 1072.59C641.466 1067.86 636.741 1064.84 631.54 1064.84H482.309C476.687 1064.84 471.669 1068.37 469.767 1073.66L307.264 1525.62ZM454.535 1498.81C451.207 1507.53 457.65 1516.89 466.988 1516.89H516.124C520.053 1516.89 523.655 1519.07 525.466 1522.56C529.682 1530.68 541.539 1529.93 544.689 1521.34L591.845 1392.73C593.034 1389.49 592.917 1385.91 591.52 1382.75L554.834 1299.82C550.018 1288.93 534.434 1289.34 530.192 1300.46L454.535 1498.81ZM653.58 175.183C607.676 175.183 556.426 182.136 522.245 188.181C515.945 189.295 511.413 194.797 511.413 201.194V250.04C511.413 257.624 517.724 263.672 525.305 263.455C587.93 261.659 665.476 265.275 744.703 280.083C839.951 297.887 939.185 332.151 1017.63 394.082C1181.56 523.498 1257 724.096 1278.47 824.615C1279.36 828.774 1282.11 832.214 1285.93 834.093C1302.5 842.252 1320.35 852.794 1337.24 863.618C1345.54 868.938 1356.65 863.973 1357.77 854.177C1360.48 830.446 1362.6 804.1 1364.2 774.859C1364.82 763.558 1365.37 751.859 1365.84 739.747C1365.92 737.758 1365.57 735.814 1364.77 733.99C1337.81 672.294 1280.76 563.74 1180.61 422.873C1100.69 310.454 988.759 248.443 886.168 214.516C783.503 180.565 691.454 175.183 653.58 175.183Z" fill="white" style="fill:white;fill-opacity:1;"/>
</svg>
